<svg xmlns="http://www.w3.org/2000/svg" baseProfile="tiny" viewBox="0 0 300 300" overflow="visible" xmlns:v="https://vecta.io/nano"><path fill="#221f1f" d="M234.4 94.6l-9.3-12.2h0l-.4-.6c-.1-.1-.2-.2-.3-.1 0 0-.9.1-2.3.1a63.94 63.94 0 0 0-14.9-8.9l-8.3-8.6c-.1-.1-.2-.1-.4-.1l-1.1.3c-8.5-2.1-17.5-3-26.8-2.5l-4.4-3c-.1-.1-.3-.1-.4 0l-5 3.8c-7.8-4.6-14.3-7.3-18.8-8.9-6.8-2.4-10.8-2.8-10.9-2.8-.2 0-.3.1-.4.3l-4.4 17.4c-1.1-.2-4.6-.8-9.4-1-5.3-.3-13.1-.3-20.9 1.5l-4.4-5.7-.1-.1-2.7-1.1c-.1 0-1.3-.5-3.5-.5-3.1 0-8 .9-13.5 5.3-4.9 3.9-7 8.5-7.8 11.6-.9 3.4-.6 5.8-.6 5.9v.1L64 87c0 .1 0 .1.1.1l6.3 7.2c-.5 1.3.2 3.9 2.3 7.9 0 .1.1.1.1.2-3.6 1.2-8.1 4-13.3 8.2-4 3.3-7.1 6.2-7.1 6.3-.1.1-.1.3-.1.4.1.1.2.2.3.2l25.5-.3c-2.4 3.4-8 7.3-8.1 7.4s-.2.2-.1.4c0 .2.2.3.3.3l6.6.5c-2 3.4-3.8 6.9-5.5 10.4-.1.2-.9 1.2-2 1.6-1.3.4-8 1.9-8 2-.1 0-.2.1-.3.3 0 .1 0 .3.1.4l3.8 3.4c.8.7.9 1.4.9 1.7-2.7 1.2-4.9 2.9-6.6 5.1-1.4 1.8-2.4 3.9-3.1 6.3-1.1 4-.6 7.3-.6 7.4s.1.2.2.3h.1c.1 0 .2 0 .2-.1l7.8-6.2c-.8 3.9-1.4 7.9-1.7 11.8-.1.2-.6.8-3.1 1.5-1.5.4-3 .6-3 .6-.2 0-.3.2-.3.4v.8c0 .1 0 .2.1.3s.2.1.3.1c0 0 1.6-.1 3.4-.1.9 0 1.7 0 2.4.1-.4 10.2.9 20 4 29-1.9 1-3.3 1.6-3.3 1.6-.2.1-.3.2-.2.4l.2.7c0 .2.2.3.4.3a26.29 26.29 0 0 0 3.9-.6c3 7.9 7.4 15 13 21.1.9 1 1.9 2.1 2.9 3l-.4.4c-.1.1-.1.2-.1.3s.1.2.2.3l.6.4c.1 0 .1.1.2.1h.1s1-.2 3.2 2.1c13 10.8 29.9 16.5 48.6 16.5a95.5 95.5 0 0 0 10.6-.6c11.2-1.3 22.4-4.4 33.2-9.4 11.2-5.2 21.7-12.1 31.1-20.7 19-17.3 32-39.4 36.5-62.5 4.2-23.5 0-45.2-12.2-61.7zm-39.9 3.9c-.4-.8-.7-1.5-1.1-2.3-.7-1.4-1.3-2.8-1.9-4.2-.3-.6-.5-1.2-.8-1.8l2.6-1.8c1.9 1.7 14.2 12.6 20.8 16s24.6 8.3 26.3 8.8c.6.9 4.2 6.8 5.9 13.5-2-.5-8.5-2.3-15.9-4-11.5-2.6-19.5-3.8-23.6-3.4-4.3-5.9-8.7-13.3-12.3-20.8zm13.1 23c2.6 3.3 9 9.1 19 17.2l14.1 11.1v.2c-24.5-16.7-32.1-24.4-39.1-37.2 2 3.2 4 6.1 6 8.7zm-6.5-27.4c5 3.7 11.1 7.9 14.1 9.5 5.3 2.9 22.6 7.8 24.5 8.3l.2.3c-3.8-1-19.5-5.4-25.5-8.5-3.6-1.8-8.9-5.9-13.3-9.6zm43.2 22.5c.6 1.9 1 3.9 1.4 5.9-.6-1.6-1.2-3.1-1.8-4.3-.4-.9-.9-1.8-1.3-2.5.6.6 1.1.9 1.4.9.2.1.3.1.3 0zm-.3-1v.3c-.4-.2-1.6-1.2-3.8-4.4 0-.1-.1-.1-.2-.1-.2-.1-19.1-5.4-24.5-8.3-1.9-1-5.2-3.2-8.6-5.6 10.5-2 25.2-2.2 27-2.2 4.6 6.1 7.9 13 10.1 20.3zM224.7 83l8.7 11.5c-3.4 0-17.4.3-27.3 2.4-6.1-4.3-12.5-9.1-12.6-9.2s-.3-.1-.4 0l-2.8 1.9c-2-3.9-4.9-8.6-7.8-12.7 3.9 1.5 17 6.2 20.9 6.7.8.1 2.1.2 3.9.2 6.1-.1 15.9-.7 17.4-.8zm-25.2-1.1c1.6.4 2.9.7 3.9.8 1.3.2 3.2.3 5.8.3h2.5c-1.5 0-3 .1-4.4.1-1.7 0-3-.1-3.8-.2-.8-.2-2.3-.5-4-1zm8.7-7.7h0c4.5 2 8.8 4.6 12.7 7.6-3.1.2-7.7.4-11.7.4-2.5 0-4.4-.1-5.7-.2-2-.3-5.5-1.2-9.1-2.2l13.5-5.2c.2-.1.3-.2.3-.4zm-9.7-9.3l8.8 9.1-13.9 5.4c-5.4-1.6-10.7-3.4-11.5-3.6-1.5-2.2-3-4.3-4.3-6 8.2-1 19.2-4.3 20.9-4.9zM176.7 67c2.7.1 5.5.3 8.5.7-2.8.6-5.6 1.1-8.2 1.4-.4-.5-.8-1-1.1-1.5l.8-.6zm-1.2 0c-.5-.7-.9-1.2-1.1-1.4l1.6 1.1-.5.3zm20.4-2.1c-2.1.6-5.2 1.5-8.6 2.3-3.8-.6-7.2-.9-10.6-.9l-5.2-3.6c8.5-.4 16.7.4 24.4 2.2zM166 59.7l8 5.5c-.1 0-.1 0-.2.1l-3.9 3.3c-2.9-2.1-5.8-3.9-8.4-5.5l4.5-3.4zm-49.3 8.7c4.7.3 8.2.8 9.3 1l-3.9 15.2c-1.4-1.1-2.8-2.3-4.3-3.4-9.7-7.5-16.6-11.4-20.4-11.6 7.2-1.5 14.4-1.5 19.3-1.2zm-16.5 4.4c.5.8 1.5 2.6 1.6 3.9L97 70.5c1.2.5 2.2 1.3 3.2 2.3zm-5.6 21.1l-5.3-5.8c.1-.7.5-3.8 2.2-6.9 1.7-2.9 4.2-5.3 5-6.1l5.2 5.9-7.1 12.9zm6.8-10.9c-.2.7-.4 1.6-.7 2.5a18.9 18.9 0 0 1-4.7 7.3l5.4-9.8zm-32.3 8.9l-4.7-5.4-.6-2.1c0-.3-.2-2.6.6-5.6s2.8-7.4 7.6-11.2c5.3-4.2 10-5.1 13.1-5.1 2 0 3.2.4 3.3.4l2.6 1 5.5 7.8-.3 2.7c-.6.5-3.4 3.1-5.3 6.4-1.8 3.3-2.2 6.4-2.3 7.2l-2.7 2c-.3 0-1-.1-1.9-.1-1.4 0-3.6.1-5.9.7-3.4.9-4.9 2.4-5.4 3l-3.6-1.7zm9.3 7.9L73.3 94c.5-.5 1.9-1.9 5-2.7 2.2-.6 4.3-.7 5.7-.7.9 0 1.5 0 1.8.1l5.2 6-12.6 3.1zm11.2-2c-1.9 1-5.1 2.4-9.1 2.2l9.1-2.2zm-17-3.5l5.4 6.2c.1.1.1.1.2.1.9.1 1.9.2 2.7.2 2.9 0 5.4-.7 7.1-1.4 2.4-1 3.8-2.1 3.9-2.2.1 0 .1-.1.1-.2s0-.3-.1-.4l-5.4-6.3 2.3-1.7 5.5 6.1c.1.1.2.1.3.1s.1 0 .2-.1c3.7-3 5.6-6.6 6.5-9.1 1-2.7 1.1-4.6 1.1-4.7h0 0c0-.1 0-.2-.1-.3l-5.5-6.3.2-2 4.7 5.4.1.1h.1c.1 0 .3-.1.3-.2.1-.3.2-.7.1-1.1 1.9 5.7-.6 13.3-6.7 18.8-4.3 3.9-9.4 5.9-14 5.9-2.7 0-5.2-.7-7.2-2.2.1 0 .1 0 .2-.1.2-.1.2-.4 0-.5l-4.5-5.3 2.5 1.2zm.5 3.4l-.3-.1c-.4-.4-.7-.9-1-1.3l1.3 1.4zm-2.4-2.1c.5 1 1.1 1.9 1.8 2.6 2.3 2.5 5.5 3.8 9.4 3.8.6 0 1.1 0 1.7-.1 4.5-.4 9-2.6 12.8-6s6.3-7.8 7.2-12.2c.9-4.5-.1-8.5-2.7-11.4l-.1-.1c-.7-.7-1.5-1.4-2.4-1.9 3.8.7 10.3 4.6 19 11.4 3 2.3 5.9 4.7 8.3 6.7 2.9 4.1 3.9 9.5 2.6 15.3-1.3 5.9-4.7 11.6-9.7 16.1-5.9 5.4-13.2 8.3-19.8 8.3-3.8 0-7.5-1-10.5-3-2.2-3-5-7-7.7-11-7.6-11.3-9.7-16.3-9.9-18.5zM94.1 134l2.6 3.6c-3.7 7.9-9.7 9-15.5 10-2.2.4-4.3.8-6.2 1.5L94.1 134zm-21.3 15.9l20.3-17.2a3.04 3.04 0 0 1 .5.7l-20.8 16.5zm20.6-18c-.3-.4-.7-.8-1-1.2l-3.1-4.1c2.8 1.5 6 2.2 9.4 2.2 6.8 0 14.2-2.9 20.3-8.4 5.1-4.6 8.6-10.4 9.9-16.5 1.1-5.1.6-10-1.5-14l4.7 4.1c.5.4 1 .9 1.5 1.4 7.5 8.3 4.6 23.2-6.4 33.3-5.4 4.9-11.9 7.9-18.2 8.5-.8.1-1.5.1-2.2.1-5.5.1-10.2-1.8-13.4-5.4zm-20.6-29c1.7 3.1 4.1 7.1 7.2 11.7.1.2.2.3.3.5l-27 1.5c2.6-2.6 12.2-11.3 19.5-13.7zm-4 13.5l12-.7c.1.2.2.4.4.5l-12.4.2zm2.1 8c1.8-1.3 6-4.6 7.7-7.4h3c2.2 3.3 4.4 6.3 6.2 8.8l-16.9-1.4zm6.4 1.3l11.1.9 3.5 4.7c.2.3.5.6.8 1l-6 5.1c-.6.2-4.7 1.5-11 3.9-1.7-.7-3.8-3.3-4.3-4 1.7-4.1 3.7-7.9 5.9-11.6zm-12.2 17.4l-3.2-2.9c1.8-.4 6.3-1.5 7.4-1.8.6-.2 1-.5 1.4-.9.4.5 2.3 2.9 4 4-2.6 1-5.4 2.2-8.6 3.5 0-.5-.3-1.2-1-1.9zm-9.2 20.1c-.1-1.2-.1-3.7.7-6.5 1.4-5.1 4.6-8.8 9.6-11 8.9-3.8 15.9-6.3 19.1-7.3l-29.4 24.8zm6.3 7.5c.4.1.8.1 1.2.1 2.9 0 7.4-1.5 13.3-4.6l2.6-1.4-10.7 7.6c-.5-.1-2.2-.5-4.2-.6H63c-.9 0-2.1 0-3.1.1 1.1-.4 1.8-.8 2.3-1.2zm36.2-18.1c-1.2 2.3-3.8 6.5-7.6 10.5-4.6 4.7-12 10-22.2 10.2.1-.1.2-.1.2-.1s20.6-13.4 29.6-20.6zm-9 5.8L99 151c.2-.1.3-.1.3-.1v.1c0 .1-.1.1-.2.2-2.4 1.9-5.9 4.5-9.7 7.2zm-30.1 14.3c-1.3 0-2.5 0-3 .1v-.1c1.1-.1 4.4-.2 6.7-.2h1.4c1.2.1 2.3.2 3.1.4-.5.1-1.1.2-1.8.2h-.5c-.3 0-.6-.1-.8-.1h-.2c-1.2-.2-2.8-.3-4.9-.3zm13 26.4c2-1.6 3.6-3.8 5.1-5.8.8-1.1 1.6-2.2 2.3-2.9.6-.6 1.2-1.1 1.7-1.3 1.7-.6 8.1-1.4 11.9-1.8-3.9.6-11 2-12.8 3.8-.9.9-1.6 1.8-2.5 2.9-1.6 2-3.3 4.2-6.1 6-3.2 2.1-7 3.8-8.6 4.5 1.6-.8 5.8-2.7 9-5.4zm27.2-25l7.8-32.7v-.1c.2-.8.8-1.2 1.2-1.3s.6-.1.7 0v.2l-9.7 33.9zm10.1-32l2 14c-.2.6-1.4 3.9-3.6 8.6-2 4.3-5.3 10.6-9.9 16.9l11.5-39.5zm-13.8 44.1c-1.8.2-11.7 1.3-14.4 2.1 5.3-6.8 11.4-17.2 15.7-25.1l7.8-14.8-9.1 37.8zm-30.5 18.2c1.9-.9 4.6-2.2 7-3.8 2.9-1.9 4.7-4.2 6.3-6.2.8-1 1.6-2 2.4-2.8 1.6-1.6 7.9-2.8 11.8-3.5-8.3 9.1-17.5 14.6-27.5 16.3zM83 229.6h0c1.1-1.1 4.6-4.6 8.4-9.3 2.9-3.4 4.2-5.8 5.4-7.9.6-1.1 1.2-2 1.8-3 .2-.3.4-.5.6-.8 1.9-2.5 4.3-4.9 5.2-5.8-.7 1.1-2.5 3.8-4.5 6.7-.9 1.2-1.7 2.6-2.6 3.8-2 3-3.9 5.9-5.4 7.6-3.4 4.2-7.9 7.9-8.9 8.7zm21.3-27.6c-.4.4-2.1 2.1-4 4.2l7-14.2-3 10zm11.9-36.4c.1-.2.3-.5.7-.6.2-.1.3-.1.3-.1s.1.2-.1.6l-10.4 31.1 9.5-31zm-32.3 64.2c1.6-1.3 5.5-4.7 8.6-8.4 1.5-1.8 3.4-4.6 5.4-7.7.9-1.3 1.7-2.6 2.6-3.8 2.6-3.7 4.8-7.1 4.8-7.2v-.1l12.2-36.5c1.2 4.3-.1 15.1-4.7 27.5-3.4 9.3-11.4 26.6-26.3 38.1-1.1-1.1-2-1.7-2.6-1.9zm28.8 15.6c.8-.3 1.4-1 1.8-1.5.2.1.5.1.7.1h.1c.1.5.3 1.5.7 2.2l-3.3-.8zm14-76.7l-1-19.9c-.1-3.7.1-7.6.5-10.8.2-1.9.5-3.1.7-3.9l25.5 31.9c-1 1.2-5.7 7.3-10.9 14.3-7.7 10.5-12.4 17.9-14.1 22.1 0 0 0 .1-.1.1 1-8.1.2-21.1-.6-33.8zm.6-35.4c.2-.6.4-.7.5-.7h.1l13.5 18.3-14.1-17.6zm.9 69.4c3.1-7.8 17.1-26.3 22.7-33.5-3.2 4.6-9.5 13.9-14.4 21.9 0 0 0 .1-.1.1-2.4 3.9-4.4 7.5-5.5 10.1-2.3 5.3-3.4 10.2-4.3 14.5-.8 3.6-1.5 7-2.9 10.2-2.9 6.8-7.7 16.4-8.3 17.3h-.2c-.2 0-.3 0-.4-.1.2-.4.7-1.5 1.3-2.7 1.8-3.7 4.8-9.8 6.5-14.8 1.2-3.3 1.6-6.2 2.1-9.3.7-4 1.3-8.1 3.5-13.7zm-12.3 40.9c.1-.2.4-.7.9-1.7l2.2-4.3c1.2-2.5 3.5-7.2 5.3-11.4 1.4-3.3 2.2-6.7 3-10.4 1-4.5 2-9.1 4.3-14.3.9-2.1 2.5-5 4.5-8.3-.6 3.2-2 9.8-4.2 17.7-2.9 10.1-7.7 24.5-14.7 35.5-.7-.2-1.1-1.8-1.3-2.8zm32.3 3.8c-4.5.6-8.9 1-13.3 1-5.8 0-11.5-.6-17-1.7 3-4.8 5.9-10.7 8.6-17.4 2.2-5.5 4.2-11.6 6.1-18.1 3-10.5 4.5-18.8 4.6-19.7 2.7-4.4 5.8-9.2 8.6-13.3 8.4 29.9 9.3 52.5 2.6 69.2-.1-.1-.1-.1-.2 0zm1.1-.5c1.8-4.8 3.1-10.1 3.7-15.9.6-5.5.6-11.6.1-18-.8-10.6-3.1-22.2-6.9-35.6l3.9-5.8 10.6 17.7h-.1c-.2 0-.3.1-.3.3 0 .1-2.9 13.2-4 21.7-.6 4.7-.7 8.1-.9 11.1-.1 2.5-.2 4.9-.5 7.6-.7 5.7-1.6 10.8-1.7 11.3-.1.3-1.7 4.2-3.9 5.6zm11.6-56.4c-.6 3.8-2.5 17.4-3 22.2-.2 2.5-.3 4.8-.4 7.1-.1 3-.3 5.9-.7 9.1-.6 4.9-2 10.6-2.2 11.8l-.5.1c.3-1.5 1-6 1.6-10.8.3-2.8.4-5.2.5-7.7.1-3 .3-6.4.8-11 1.1-7.2 3.3-17.8 3.9-20.8zM150.3 247c1.9-1.6 3.3-4.6 3.6-5.4l.6-.1c-.3 2.3 0 3.7.8 4.4.1 0 .1.1.2.1-1.8.4-3.5.8-5.2 1zm34.5-11.9c-8.9 4.8-18.2 8.3-27.4 10.5-.6.1-1.2.1-1.6-.3-.6-.6-.8-2-.5-4.3.1-.4 1.6-6.7 2.3-12.1.4-3.2.5-6.1.7-9.1l.4-7.1c.5-5.6 3.1-23 3.1-23.2v-.2l-11-18.4-.1-.1 2.9-4.2c.1-.1.1-.3 0-.4l-.3-.5-24.9-33.7c-.3-.2-.6-.3-.9-.1-.5.2-.8.9-1.2 2.1-.3 1-.5 2.3-.7 4-.4 3.2-.6 7.2-.5 10.9.1 5.9.6 12.7 1 19.9.9 14.7 1.8 30 .3 37.3-1.2 3.9-1.7 7.1-2.2 10.2-.5 3-.9 5.9-2.1 9.1-1.8 5-4.7 11.1-6.5 14.8l-1.4 3c-.2.3-1.4 2.1-3.2 1.7-8.6-2.6-16.7-6.8-23.7-12.6 5.9-4.6 11.4-10.6 16.1-17.7 4.1-6.3 7.6-13.2 10.4-20.6 2.3-6.3 4-12.8 4.7-18.2.7-5.1.5-9-.5-10.9-.1-.4-.3-.6-.5-.6-.7-.2-1.7.5-1.9 1.1l-6.8 22.3L98 209.1a23.81 23.81 0 0 0-1.8 3c-1.2 2.1-2.5 4.4-5.4 7.8-3.3 4-6.4 7.2-7.8 8.7-1-1-2-2-2.9-3-5.5-6.1-9.8-13-12.8-20.8 9.7-2.1 18.6-7.8 26.7-16.9l2.1-.3c.1 0 .3-.1.3-.3l1.1-3.7c5.2-6.8 8.9-13.9 11.2-18.6 2.4-5.1 3.6-8.7 3.6-8.8v-.2l-2.2-15.7c.1-.5-.1-.7-.2-.9-.3-.3-.9-.4-1.5-.2-.7.2-1.5.8-1.8 1.9l-1 4c-.3.6-4.1 8.5-9.2 17.7-4.8 8.8-11.7 20.6-17.3 27.1-.8.8-1.5 1.9-2.4 3-1.4 1.9-3.1 4.1-5 5.7-1.7 1.4-3.7 2.7-5.5 3.6-3-8.9-4.4-18.5-3.9-28.6.6 0 1.1.1 1.6.2.4.1.7.1 1.1.1 1.1.1 2.2.2 3.2.2 4.2 0 8.2-.8 12-2.5 4-1.8 7.8-4.4 11.2-7.9 5.3-5.5 8.2-11.4 8.6-12.3 0 0 0-.1.1-.1.1-.3 0-.6-.1-.7-.3-.3-.8-.4-1.4 0-3.1 2.6-8 6.3-13 9.9-2.7 1.7-17 10.5-22.9 9.6.3-4.2 1-8.4 1.9-12.6l7.5-5.9c2.7-1.8 5.9-2.4 9.2-3 3-.5 6-1.1 8.8-2.5 3-1.6 5.3-4 7-7.5 3.5 5.2 3.6 6.6 3.6 6.8 0-.2.9-1.9-5.2-10.3 1.4 1 2.9 1.7 4.5 2.3 2.1.7 4.3 1 6.6 1 .8 0 1.5 0 2.3-.1 6.5-.6 13.2-3.7 18.7-8.7s9.2-11.3 10.4-17.8c.6-3.2.6-6.2-.1-9-.7-2.9-2-5.5-3.9-7.6l-1.5-1.5c-.1 0-4.3-3.9-9.9-8.4l8.5-33.3c1.1.1 4.8.8 10.5 2.8 6.2 2.2 15.9 6.5 27.6 14.6L136.4 97l-.1.1c-.2.3-.3.8 1.4 3.5.9 1.5 2.3 3.4 4.1 5.8 2.3 3.2 4.7 6.3 5.7 7.6l-7.2.2a.55.55 0 0 0-.5.3c-.2.3-.4.9 0 3.5.2 1.8.7 4.2 1.4 6.8.9 3.6 2.9 10.9 6.2 19.3 3.1 7.7 11.1 18.9 18.9 29.7 6.7 9.4 13.1 18.3 15.5 23.8 2.1 4.9 3.6 12.7 4.4 22.7.6 6.9.6 12.7.6 13.7-.6.2-1.3.7-2 1.1zm2.1-15.1c-.6-7-1.8-16.7-4.5-22.9-2.4-5.6-8.8-14.5-15.5-24-7.7-10.8-15.7-21.9-18.8-29.5-3.3-8.3-5.3-15.6-6.2-19.2-.6-2.6-1.1-5-1.3-6.7-.3-2.1-.2-2.7-.1-2.9l45.1-1.5-1.4 24.9c-.3 4.2-1 8.4-1.6 12.4-.9 5.6-1.7 11.5-1.8 17.8-.1 5.9 3.7 20.8 7.1 33.9.4 1.7.9 3.4 1.3 5 2.1 8.1 3.3 14.6 3.4 15.3-.7 3.2-2 7.3-5.1 10.4 0-1.9-.1-7-.6-13zm12.1-80.6c0 .1 3.4 14.1 8.6 25.1 1.4 3 3.5 6.2 5.5 9.3.6.9 1.2 1.8 1.7 2.7 4.3 6.9 8.3 12.7 8.8 13.5v.7c-.2 4.1-.3 7.5-1.6 11-1.3-2.1-5.6-9.2-11.5-17-4.2-5.5-8.3-10.2-12.3-14.2-4.9-4.9-9.6-8.4-14-10.7.2-3 .6-6.3.9-9.5l1.1-12.1v-.4l12.7 1c.1.4.1.5.1.6zm1.5 2.8c2.1 5.5 6.4 16.8 10.1 23.9 4.7 9 12.6 21.2 13.8 22.9l-.3.3c-1-1.5-4.7-6.9-8.6-13.2-.6-.9-1.2-1.8-1.7-2.7-2-3.1-4.1-6.3-5.5-9.3-3.8-7.8-6.5-17.3-7.8-21.9zm-14.9-3.8c-.2 3.6-.7 7.9-1.1 12.1-.7 7-1.4 14.2-1.3 18.5.1 4.9 3.1 17.5 5.3 26.7l2.2 9.5c1 5.4 2.6 15.1 2.8 16.7l-.3.2c-.3-1.8-1.5-7.7-3.3-14.9-.4-1.6-.8-3.3-1.3-5-3.2-12.4-7.2-27.9-7.1-33.7.1-6.3 1-12.1 1.8-17.7.6-4 1.2-8.2 1.6-12.4.4-5.4.8-12.3 1-17.5.1 5.3 0 12.4-.3 17.5zm2.9 94.6c2.8-3.1 4.1-7 4.8-10.1l.1-.1c-.2 3.5.2 5.4 1.2 5.9.1.1.3.1.4.2-2.1 1.4-4.2 2.8-6.5 4.1zm20.8-15.3c-3.9 3.6-8 6.8-12.2 9.8-.6.4-1.2.7-1.6.7-.2 0-.3 0-.4-.1-.6-.3-1.2-1.6-.8-6.1v-.1a886.19 886.19 0 0 0-2.9-16.9c-.3-1.9-1.2-5.4-2.2-9.5-2.2-9.2-5.1-21.7-5.3-26.5-.1-2.2.1-5 .3-8.2 9.8 5.1 19.4 16.1 25.8 24.5 6.5 8.6 11 16.2 11.7 17.4-.8 1.9-1.9 3.9-3.7 6.1a80.94 80.94 0 0 1-8.7 8.9zm12.4-13c2.3-4.6 2.5-8.7 2.7-13.9v-.7c.1 4.7.6 6.8 1.7 7.2.1 0 .3.1.4.1.3 0 .6-.1 1-.3-1.8 2.5-3.7 5.1-5.8 7.6zm19.6-34.2c-2.8 7.9-6.6 15.6-11.4 23-1.4 1.7-2.8 3.4-3.5 3.1-.5-.2-1.2-1.7-1.2-7.6 0-.1 0-.1-.1-.2s-8.9-13.5-13.9-23.1c-3.3-6.3-7-15.9-9.3-21.8 11.9 3.2 22 9.3 28.4 13.9s10.5 8.6 11.2 9.3c.1 1.3 0 2.4-.2 3.4zm.3-4.4c-1.4-1.4-5.2-4.9-10.8-8.9-4.2-3-8.5-5.6-12.9-7.8-5.4-2.7-10.9-4.9-16.3-6.3l-1.6-4.4c0-.1-.2-.2-.3-.2l-13.3-1.1c.5-9.4.2-24.3.2-24.4s-.1-.2-.1-.3c-.1-.1-.2-.1-.2-.1l-37.8 1.2-5.8-7.6c-1.7-2.3-3.1-4.3-4-5.7-1.5-2.2-1.7-2.9-1.7-3.1l36.9-31.1c1.8 2.3 13.1 17.2 16.9 26.2.9 2.1 1.9 4.3 3 6.5 0 .1.1.2.1.3 5.4 11.4 9 18.9 15.2 26.2 6.1 7.1 14.9 14.3 31.5 25.6.2 1 1.1 8.9 1 15zm.7 1.4c.2-3.8-.1-8.5-.4-11.9.5 2.1.9 3 1.5 3.3.1.1.3.1.4.1.2 0 .3 0 .5-.1a1.38 1.38 0 0 0 .4-.3c-.6 2.9-1.4 5.9-2.4 8.9zm3-11.4c-.4 1.1-.9 1.9-1.3 2.1-.1.1-.2 0-.3 0-.7-.4-1.4-3.5-2.4-8.7 0-.1-.1-.2-.1-.2-.3-.2-27-20.4-33.1-28.3l-.8-1.1c9.6-.6 36.4 6.7 39.1 7.5.1.4.2.7.2 1.1 1.1 9 .6 18.3-1.3 27.6zM85 83.7c2.7-2.5 4.6-5.6 5.4-8.7.7-3.2.2-6-1.6-7.9-1.5-1.6-3.6-2.4-6.1-2.4-3.6 0-7.5 1.7-10.8 4.6-2.7 2.5-4.6 5.6-5.4 8.7-.7 3.2-.2 6 1.6 7.9 1.5 1.6 3.6 2.4 6.1 2.4 3.6 0 7.5-1.7 10.8-4.6zm-17.8-5.5c.7-3 2.5-5.9 5.2-8.3 3.1-2.8 6.8-4.4 10.3-4.4 2.3 0 4.2.8 5.5 2.2 3.3 3.7 1.6 10.6-3.7 15.5-3.1 2.8-6.8 4.4-10.3 4.4-2.3 0-4.2-.8-5.5-2.2-1.6-1.8-2.1-4.3-1.5-7.2zm9.6 5.7c2-.3 4-1.3 5.7-2.8 1.7-1.6 2.9-3.5 3.4-5.4.5-2 .1-3.8-1-5-.8-.9-2-1.4-3.4-1.5l-3-1.2c-.2-.1-.4-.1-.6-.1a1.69 1.69 0 0 0-1 .3l-5 3.3a3.25 3.25 0 0 0-1 1.3l-1.4 4.9c-.1.4 0 .9.3 1.2l1 1.1v.1c.1 1 .5 1.9 1.2 2.6.9 1 2.3 1.6 3.9 1.6.2-.3.6-.3.9-.4zm5.3-3.4c-1.5 1.4-3.3 2.3-4.9 2.6l-1.9-2.2a.76.76 0 0 0 .4-.2l5.6-3.5c.2-.1.4-.3.5-.5l1.9 2.1c-.5.6-1 1.2-1.6 1.7zm2.3-9.4c.3.4.6.8.8 1.3l-1.8-2.1c.3.2.7.5 1 .8zm1 2.7c0 1.4-.4 2.9-1.4 4.4l-1.9-2.1v-.2l.9-4.7 2.4 2.6zm-14.9 4.4c-.2-.1-.3-.4-.3-.6l1.4-4.9c.1-.3.4-.7.7-.9l5-3.3c.1-.1.4-.1.6-.1.1 0 .3 0 .4.1l3.8 1.6c.2.1.4.4.3.6l-1 5.1c-.1.3-.3.7-.6.9l-5.6 3.5c-.1.1-.3.1-.5.1s-.3 0-.4-.1l-3.8-2zm2 3.7c-.3-.3-.5-.7-.7-1.2l1.8 2c-.5-.2-.8-.4-1.1-.8zm-.7-2.1l2.1 1.1c.1 0 .2.1.3.1l2 2.3h-.5c-.3 0-.6 0-.9-.1l-3-3.4zm14.4 5.3c3.1-2.8 5.3-6.3 6.1-9.9s.1-6.8-1.9-9.1c-1.7-1.9-4.2-2.9-7.1-2.9-4.1 0-8.5 1.9-12.1 5.2-3.1 2.8-5.3 6.3-6.1 9.9s-.1 6.8 1.9 9.1c1.7 1.9 4.2 2.9 7.1 2.9 4.1 0 8.5-1.9 12.1-5.2zm-20.4-6.6c.8-3.4 2.8-6.8 5.8-9.5 3.5-3.2 7.7-5 11.6-5 2.7 0 5 .9 6.6 2.6 3.9 4.3 2.1 12.3-4.1 17.9-3.5 3.2-7.7 5-11.6 5-2.7 0-5-.9-6.6-2.6-1.9-2-2.5-5-1.7-8.4z"/></svg>