<svg xmlns="http://www.w3.org/2000/svg" baseProfile="tiny" viewBox="0 0 300 300" overflow="visible" xmlns:v="https://vecta.io/nano"><path fill="#221f1f" d="M127 71.7h-12.3a.47.47 0 0 0-.5.5v6.3a.47.47 0 0 0 .5.5H127a.47.47 0 0 0 .5-.5v-6.3a.47.47 0 0 0-.5-.5zm-.5 6.3h-11.3v-5.3h11.3V78zm20.7-6.3h-12.3a.47.47 0 0 0-.5.5v6.3a.47.47 0 0 0 .5.5h12.3a.47.47 0 0 0 .5-.5v-6.3c.1-.3-.2-.5-.5-.5zm-.5 6.3h-11.2v-5.3h11.2V78zm39.8-6.3h-12.3a.47.47 0 0 0-.5.5v6.3a.47.47 0 0 0 .5.5h12.3a.47.47 0 0 0 .5-.5v-6.3a.47.47 0 0 0-.5-.5zM186 78h-11.2v-5.3H186V78zm-19.6-6.3h-12.3a.47.47 0 0 0-.5.5v6.3a.47.47 0 0 0 .5.5h12.3a.47.47 0 0 0 .5-.5v-6.3a.47.47 0 0 0-.5-.5zm-.5 6.3h-11.2v-5.3h11.2V78zM119 200c7.7 0 14-6.3 14-14s-6.3-14-14-14-14 6.3-14 14 6.3 14 14 14zm0-26.5c6.9 0 12.5 5.6 12.5 12.5s-5.6 12.5-12.5 12.5-12.5-5.6-12.5-12.5 5.6-12.5 12.5-12.5zm58.6 26.5c7.7 0 14-6.3 14-14s-6.3-14-14-14-14 6.3-14 14 6.3 14 14 14zm0-26.5c6.9 0 12.5 5.6 12.5 12.5s-5.6 12.5-12.5 12.5-12.5-5.6-12.5-12.5 5.6-12.5 12.5-12.5zM119 193.2a7.17 7.17 0 1 0 0-14.4 7.17 7.17 0 1 0 0 14.4zm0-13.4c3.4 0 6.2 2.8 6.2 6.2s-2.8 6.2-6.2 6.2-6.2-2.8-6.2-6.2 2.8-6.2 6.2-6.2zm58.6 13.4a7.17 7.17 0 1 0 0-14.4 7.17 7.17 0 1 0 0 14.4zm0-13.4c3.4 0 6.2 2.8 6.2 6.2s-2.8 6.2-6.2 6.2-6.2-2.8-6.2-6.2 2.8-6.2 6.2-6.2zm73.6-19.7a.55.55 0 0 0-.5-.3l-15.6-2.6V132c0-.4-.4-.8-.8-.8h-4.6v-30.8c0-.4-.3-.8-.8-.8h-30.4V66c0-.4-.3-.8-.8-.8h-9.1v-5c0-.4-.4-.8-.8-.8h-2.2V43.3c0-.4-.4-.8-.8-.8s-.8.3-.8.8v16.2h-2.2c-.4 0-.8.4-.8.8v5h-78.8c-.4 0-.8.3-.8.8v33.8H71.1c-.4 0-.8.3-.8.8V143H64c-.4 0-.8.3-.8.8v13.3l.1.6-14.1 2.3c-.2 0-.4.2-.5.3-.1.2-.2.4-.1.6a1280.03 1280.03 0 0 0 8.9 39.5c3.3 13.8 6.3 24.5 8.7 31.9l.1.2c3.3 10.1 4.8 11.3 5.5 11.8 6.5 5.1 61.7 13.4 78.1 13.4s71.6-8.3 78.1-13.4c.9-.7 2.6-3.3 5.4-11.6h0l.1-.1c.1-.1.1-.2.1-.3h0v-.1c7.3-22.1 16.6-66.3 17.6-71.2.2-.5.1-.7 0-.9zm-17.7-27.3v9.2h-9.2v-9.2h9.2zm-10 10.7h10v13.4l-27.2-4.5v-.5-.1-19.1h16.4v10c.1.5.4.8.8.8zM103 66.8h94v19h-94v-19zm0 20.5h94v12.5h-94V87.3zm-31.1 14h156.2v7.6H71.9v-7.6zm0 9.1h156.2v20.8h-22.5c-.4 0-.8.3-.8.8v20.2l-4.9-.8V136c0-.4-.3-.8-.8-.8h-28.7c-.4 0-.8.3-.8.8v10.4l-4.6-.8v-19.8c0-.4-.4-.8-.8-.8h-28.7c-.4 0-.8.3-.8.8v19.8l-5 .8v-2.9c0-.4-.4-.8-.8-.8h-17.6V115c0-.4-.3-.8-.8-.8H82c-.4 0-.8.3-.8.8v27.7h-9.4v-32.3zm126.5 26.3v14.4l-27.2-4.5v-9.9h27.2zm-34.8-10.1v5.6H153v-5.6h10.6zm-35.3 17.7v2.4l-9.2 1.5v-3.9h9.2zm-34 8.1l-.7.1V144h6v7c.1.4.1.5-5.3 1.4zm-11.5-10v-4.8h12c.4 0 .8-.4.8-.8v-7.6c0-.4-.3-.8-.8-.8h-12v-12.5h16.4v10c0 .4.3.8.8.8h10v15.8H82.8zm0-6.4v-6.1H94v6.1H82.8zm18-10.9v-9.2h9.2v9.2h-9.2zm.3 19.2h16.4v4.2l-16.4 2.7v-6.9zm-36.3 0H92v8.4l-27.2 4.5v-12.9zM149.2 256h-.6c-8.2-.2-24.9-2.1-40.6-4.6-19.1-3-32.3-6.2-35.1-8.4-1.1-.9-2.5-3.7-4.2-8.8l-.4-1 1.1.3c8.9 2.2 40.8 9.5 79.4 12.6h.5v9.9zm0-11.5h-.6c-41.2-3.4-74.3-11.4-80.6-13l-.3-.1-.1-.3c-5.2-16.1-12.3-46.4-17.1-69.3l-.1-.6 98.9-16.3v99.6zm.6-101.3l-13.4 2.2v-18.8h15v6.3c0 .4.3.8.8.8h11.4v11.6l-13.4-2.2-.4.1zm81.6 90.9c-1.8 5.1-3.1 7.9-4.2 8.8-6.6 5.2-59 12.6-75.8 13h-.6V246h.6c38.6-3.2 70.5-10.5 79.3-12.6l1.1-.3-.4 1zm18.1-72.3c-4.8 22.9-11.9 53.2-17.1 69.3l-.1.3-.3.1c-6.2 1.6-39.3 9.6-80.6 13h-.6v-99.7l98.9 16.3-.2.7z"/></svg>