<svg xmlns="http://www.w3.org/2000/svg" baseProfile="tiny" viewBox="0 0 300 300" overflow="visible" fill="#221f1f" xmlns:v="https://vecta.io/nano"><path d="M199.8 164.8l-.6.9c0 .1-.1.1-.1.2l-.2 1v.2l.2 1c0 .1 0 .1.1.2l.6.9c0 .1.1.1.1.1l.9.6c.1 0 .1.1.2.1l1 .2h.1.1l1-.2c.1 0 .1 0 .2-.1l.9-.6c.1 0 .1-.1.1-.1l.2-.2.4-.6c0-.1.1-.1.1-.2h0l.2-1v-.2h0l-.2-1c0-.1 0-.1-.1-.2l-.6-.9c0-.1-.1-.1-.1-.1l-.9-.6c-.1 0-.1-.1-.2-.1l-1-.2h-.2l-1 .2c-.1 0-.1 0-.2.1l-.9.6c0-.1 0 0-.1 0zm2.3 0l.8.2.7.5.5.7.2.8-.2.8-.4.5-.1.2-.6.5-.8.2-.8-.2-.7-.5-.5-.7-.2-.8.2-.8.5-.7.2-.1.5-.3.7-.3zm-15 19.5c0-.1-.1-.2-.1-.2l-.4-.4s-.1 0-.1-.1h-.1l-.6-.2h-.1-.1-7.6-3.8 0-.1l-.6.2c-.1 0-.2.1-.2.1l-.4.4s0 .1-.1.1v.1l-.2.6v.1.1 3.1.1l.2.6c0 .1.1.2.1.2l.3.3.1.1c.1.1.1.1.2.1l.6.2h.1 4.5 0 7 .1l.6-.2h.1s.1 0 .1-.1l.4-.4c.1-.1.1-.1.1-.2l.2-.6v-.1-3.1-.1l-.2-.7zm-1.6 4.5h-6.9-4.4l-.4-.1h0l-.2-.2-.1-.4v-3l.1-.4.2-.2.4-.1h3.7 7.5l.4.1.2.2.1.4v3l-.1.4-.2.2-.3.1zm5-10.1s0 .1 0 0c0 .1-.1.1-.1.1l-.1.4v.1 7.1 1 .1l.1.4c0 .1.1.1.1.2l.3.3s.1 0 .1.1h.1l.4.1h.1 2.2 0 .1l.4-.1h.1s.1 0 .1-.1l.3-.3c.1-.1.1-.1.1-.2l.1-.4v-.1-6.7-1.4-.1l-.1-.4c0-.1-.1-.2-.1-.2l-.3-.3s-.1 0-.1-.1h-.1l-.4-.1h-.1-.1-2.2-.1l-.4.1c-.1 0-.2.1-.2.1l-.3.3c.2 0 .2 0 .1.1 0-.1 0 0 0 0zm1.2.3h2.1l.2.1.1.1.1.2v1.3 6.6l-.1.2-.1.1-.2.1h-2.1l-.2-.1-.1-.1-.1-.2v-1-7l.1-.2.1-.1h.2zm-41.3 5.8v-.3l-.3-1.1v-.2c0-.1-.1-.2-.1-.2l-.9-.9c-.1-.1-.1-.1-.2-.1l-1.3-.3h-.3l-1.3.3c-.1 0-.2.1-.2.1l-.9.9c-.1.1-.1.1-.1.2l-.3 1.3v.3l.2.7h0l.2.6c0 .1.1.2.1.2l.9.9c.1.1.1.1.2.1l1.3.3h.1.1l1.3-.3c.1 0 .2-.1.2-.1l.9-.9c.1-.1.1-.1.1-.2l.3-1.3zm-1.2.9l-.8.7-1 .3-1-.3-.8-.7-.1-.4h0l-.2-.6.3-1 .8-.7 1-.3 1 .3.8.7h0l.3 1-.3 1zm80.7-108.2h10.6a.47.47 0 0 0 .5-.5v-9.7a.47.47 0 0 0-.5-.5h-2-2.4-.2-.1s-.1 0-.1.1l-6.2 6.2s-.1.1-.1.2v.2 2V77c0 .2.3.5.5.5zm7.4-9.7l-6.9 6.5v-.6l5.9-5.9h1zm-.2 6.1l-.1.1-.2.3-.4.2-.4.1-.4-.1-.4-.2-.2-.4-.1-.4.1-.4.2-.4.4-.2.4-.1.4.1.4.2.2.4.1.4v.4zm2.9 2.6h-9.6v-.8l3.3-3.1h0l-.2.8v.2l.2.8c0 .1 0 .1.1.2l.5.7c0 .1.1.1.1.1l.7.5c.1 0 .1.1.2.1l.8.2h.1.1l.8-.2c.1 0 .1 0 .2-.1l.7-.4c.1 0 .1-.1.1-.1l.5-.7c0-.1.1-.1.1-.2l.2-.8v-.2l-.2-.8c0-.1 0-.1-.1-.2l-.5-.7c0-.1-.1-.1-.1-.1l-.7-.4h0-.1-.1l-.8-.2h-.1-.1l-.7.1 3.5-3.3h1.3v8.6z"/><path d="M273.5 98v-.1l-2.1-5v-.1-.1l-3.3-4.3-.1-.1-3.8-2.9V82a.47.47 0 0 0-.5-.5H262v-1.9a.47.47 0 0 0-.5-.5h-3.6v-.4h3.6a.47.47 0 0 0 .5-.5v-.8-1.1h1.6a.47.47 0 0 0 .5-.5v-5.6a.47.47 0 0 0-.5-.5H262v-1.9a.47.47 0 0 0-.5-.5h-15.4v-.1a.47.47 0 0 0-.5-.5H244v-.6-.1a.47.47 0 0 0-.5-.5h-2.7v-.3a.47.47 0 0 0-.5-.5h-.6v-.4a.47.47 0 0 0-.5-.5h-7.3a.47.47 0 0 0-.5.5v.4h-.4a.47.47 0 0 0-.5.5v.3h-1.3-2.1-.7c-.1 0-.3.1-.4.1 0 0-.1.1-.1.2h-1.1a.47.47 0 0 0-.5.5v2h-3.6-.1-.1l-5.2 2.5-4.7 1.3-5.8 1-5.3.2h-7.2v-.7a.47.47 0 0 0-.5-.5h-4.4a.47.47 0 0 0-.5.5v.7h-16.5V73v-.3a.47.47 0 0 0-.5-.5h-4.4a.47.47 0 0 0-.5.5v.7h-16.5v-.7a.47.47 0 0 0-.5-.5h-4.4a.47.47 0 0 0-.5.5v.7h-16.5v-.7a.47.47 0 0 0-.5-.5h-4.4a.47.47 0 0 0-.5.5v.7h-16.5v-.7a.47.47 0 0 0-.5-.5H100a.47.47 0 0 0-.5.5v.7h-12l-1.4-.4-1.1-.6-1.2-.7-1.1-1.1c-.1-.1-.2-.1-.4-.1h-5.8a.47.47 0 0 0-.5.5v1 1.7.3 2.2H59.6V74h0a.47.47 0 0 0-.5-.5h-3.4 0-.2 0s-.1 0-.1.1L51.8 77l-.6.5-.5.2-.7.2h-9.7l-.8-1.1s0-.1-.1-.1l-1.5-1.2s-.1 0-.1-.1l-1.8-.8h-.1l-1.9-.3h-.1l-1.9.3h-.1l-1.8.7c-.1 0-.1 0-.2.1h0l-1.5 1.1h0c-.1 0-.1.1-.1.2l-1.1 1.4h0s0 .1-.1.1v.1l-.7 1.7v.1l-.2 1.8v.2l.2 1.9v.1l.7 1.7c0 .1 0 .1.1.2h0l1 1.3v7.6 3.3a.47.47 0 0 0 .5.5h1.2v.2.4h-.7 0a.47.47 0 0 0-.5.5v1.6H28a.47.47 0 0 0-.5.5v1.8a.47.47 0 0 0 .5.5h13a.47.47 0 0 0 .5-.5v-1.8a.47.47 0 0 0-.5-.5h-.1-.3v-1.6a.47.47 0 0 0-.5-.5h0-.7v-.4-.2h1.1a.47.47 0 0 0 .5-.5v-3.3-8.4h9l.6.1.7.3.4.3 3.7 3.6.1.1h.2 3.4c.2 0 .3-.1.4-.2 0-.1.1-.2.1-.3v-2.2h16.5v2 .2 3h0a.47.47 0 0 0 .5.5h5.8.2c.1 0 .1-.1.2-.1l1.1-1.1 1-.6 1.1-.5 1.5-.4h112.2l5.2.2 10.4 2.3 5.3 2.5h.2 3.6v2a.47.47 0 0 0 .5.5h.7l-1.9 1.1h-.8a.47.47 0 0 0-.5.5v.3l-.9.5h-.1a.55.55 0 0 0-.5.3l-4.7 2.7-66 38.3c-.1 0-.2 0-.3.1l-1.7 1-5 3s-.1 0-.1.1l-3.5 2.1-2.9.4h-.1l-4.7 2s-.1 0-.1.1l-4.1 3.1-.1.1-3.1 4.1s0 .1-.1.1l-2 4.7v.1l-.7 5.1-.1.4v.2l.4 2.2.3 2.4v.1l.3.7.2 1.1c0 .1 0 .1.1.2l.6.9.8 1.9s0 .1.1.1l3.1 4.1.1.1 2.6 2 2.6 11.3v1.8a.47.47 0 0 0 .5.5h1.3 1.8 3.5v2.1.1.1.1s0 .1.1.1l5 4v3.3h-5.7a.47.47 0 0 0-.5.5v4.7h-8.5-1.3a.47.47 0 0 0-.5.5v1.7h-3.2-1.8a.5.5 0 1 0 0 1h.9l-1.2 2h-10.6a.47.47 0 0 0-.5.5v7 5.9 3.4a.47.47 0 0 0 .5.5h5.6.6.9 5.6 63.8 29.5a.47.47 0 0 0 .5-.5v-1.4l7.7-7.7c.1-.1.1-.2.1-.4v-7.8a.47.47 0 0 0-.5-.5h-16.1-.1-1.2v-1.2c.1-.1.2-.2.2-.4a.47.47 0 0 0-.5-.5h-6.1v-1.7a.47.47 0 0 0-.5-.5h-9.8V209a.47.47 0 0 0-.5-.5H186l.4-3.2 5.1-4s0-.1.1-.1v-.1-.1-.1-2.1h3.1 1.6a.47.47 0 0 0 .5-.5v-1.8-4.3l4.7-1.4c.2-.1.3-.2.3-.4l.5-.2s.1 0 .1-.1h.1l.1-.1.1-.1c0-.1 0-.1.1-.2v-.2l-.3-1 41.3-12.6h.1l.1-.1 5-7c.1-.1.1-.2.1-.3v-.1-.1l-1.5-5h.1a.78.78 0 0 0 .4-.4v-.2l-.3-.8-.1-.5-.1-.3-2.8-9.1-.4-1.2-.1-.4v-.1l-.2-.7c-.1-.3-.4-.4-.6-.3h-.1l-1.5-5v-.1s0-.1-.1-.1l-.1-.1s-.1 0-.1-.1l-8-3h-.1-.1-.1-.1l-41.3 12.6-.3-1c-.1-.3-.4-.4-.6-.3l-.5.2c-.1-.1-.3-.2-.5-.1l-8.6 2.6s-.1 0-.1.1l-.1.1-.1.1v.1l-.5.1h0c-.2.1-.3.2-.3.4v.2l.3 1-2.3.7h-7.4l1.7-1.4h0l1.7-1h0c.1 0 .1-.1.2-.1l23.4-13.5 30-17.3 12.3-4 2 1.5s.1 0 .1.1l5 2.1h.1l5.4.7h.1.1l5.4-.7h.1l5-2.1s.1 0 .1-.1l4.1-3.2.2-.1.1-.1 3.3-4.3s0-.1.1-.1l2.1-5v-.1l.7-5.4v-.1l-.7-5.5zm-244.1.1h-.5v-2.3h.3.1v2.3zm-.1-3.3H29v-6.2l.8.6v5.6h-.5zm11.2 8v.8h-12v-.8h1.4.6H38h.6 1.5.4zm-.9-2.1v1.1h-1-.6-7.5-.6-.5v-1.1h.7.4.9H38h.8.2.6zm-1.2-4.9v2.3h-1.2-6.8v-2.3h8zm-7.7-1v-5.2l1 .4h.1l1.9.3h.1l1.9-.3h.1l1.8-.7c.1 0 .1 0 .2-.1h0l.3-.2v5.8h-7.4zm-.1 4.3h7.8v.2.4H38h-6.7-.7v-.4-.2zm9.3-1h-.5v-2.3h.1.1.1.1v2.3zm0-3.3h-.2-.1-.4v-6.6l.2-.2.1-.1.4-.6v7.5zm.6-10.6l-.5 1.3-.2.4-.1.1-.1.1-.3.4-.6.8-.3.3-.1.1-1 .8-1.7.7-1.8.2-1.8-.3-1.5-.6h-.1l-.9-.7-.1-.1-.2-.2-.2-.2-1.1-1.4-.7-1.7-.2-1.8.2-1.8.7-1.7 1.1-1.4 1.4-1.1 1.7-.7 1.8-.2 1.8.2 1.7.7 1.4 1.1.9 1.2s0 .1.1.1l.1.1.7 1.7.2 1.8-.3 1.8zm212.3-2.1h-.1l-5.4.7s-.1 0-.2.1l-1.7.7-1.4.6v-5.1h1.6 11.2v.6 2.7.3l-4-.6zm-3.8 5.7l3.8-.8 2.2.4 4.2.8 5.4 3.6 3.6 5.4 1.3 6.3-1.5 6.5-3.6 5.4-5.4 3.6-6.3 1.3-6.3-1.3-3.4-2.3-1.9-1.3-3.6-5.4-1.3-6.3 1.3-6.3 3.6-5.4 2.7-1.8h0l2-1.4.5-.4 2.7-.6zm-6 1.3l-8.1 4.6.2-.4 3.2-4.2 4.2-3.2.5-.2v3.4zM225.4 98V66.8h.5V98h-.5zm20.7-20.3V76H261v1.4.3h-14.9zm15.9-5.8h1.1v2.3H262v-2.3zm0 3.3h1.1v.2H262v-.2zm1.1-4.3H262v-.2h1.1v.2zm-2.1.1v.4 3.3.4h-14.9v-4H261zm-15.9 7.1H244V67.8h1.1v10.3zm18 6.7l-1.1-.5v-.6h1.1v1.1zm-2.1-2v.4.7l-2.6-1.1h2.6zm2.1-.1H262v-.2h1.1v.2zm-2.1-.9h-3.1v-1.7h3.1v1.7zm0-13.4V70h-14.9v-1.7H261zm-31.8-1.9h1.8 8.5 3.5v.8 11.3.2.2 1.6l-.4-1c-.1-.2-.4-.3-.7-.2l-2.7 1.5s-.1.1-.2.1l-1.6 1.3-.9.8-2 2.5c-.1.2-.1.4 0 .6v.1l1.4 2c.1.1.2.2.4.2a.76.76 0 0 0 .4-.2l1.9-2.1 2.2-1.8 2.2-1.3v1.5l-.9.4s-.1 0-.1.1l-4.3 3.3v.1l-3.3 4.3-.1.2-.6 1.5-6.5 3.7V66.5h.2 1.8zm8.1 17.3l1.8-1.5.5-.5 2.3-1.3.6 1.6-2.2 1.4-2.3 1.9-1.6 1.7-.8-1.3 1.7-2zM87.9 74.3h11.6v.7a.47.47 0 0 0 .5.5h4.4a.47.47 0 0 0 .5-.5v-.6h16.5v.6a.47.47 0 0 0 .5.5h4.4a.47.47 0 0 0 .5-.5v-.6h16.5v.6.2c0 .1.1.2.3.3h.2 4.4a.47.47 0 0 0 .5-.5v-.6h16.5v.6a.47.47 0 0 0 .5.5h4.4a.47.47 0 0 0 .5-.5v-.6H187v.6a.47.47 0 0 0 .5.5h4.4a.47.47 0 0 0 .5-.5v-.6h6.7v16.1H87.9V74.3zm12.6.2v-.2h3.4v.2h-3.4zm3.4-1.2h-3.4v-.1h3.4v.1zm18.5 1.2v-.2h3.4v.2h-3.4zm3.4-1.2h-3.4v-.1h3.4v.1zm18.5 1.2v-.2h3.4v.2h-3.4zm3.3-1.2h-3.4v-.1h3.4v.1zm18.6 1.2v-.2h3.4v.2h-3.4zm3.3-1.2h-3.4v-.1h3.4v.1zm18.5 1.2v-.2h3.4v.2H188zm3.4-1.2H188v-.1h3.4v.1zm-114.3 20v-2.5-.3-2.4-11.4V74v-.4V72v-.5h4.8v21.9h-4.8zm-21-18.8h2.4v2 .2h0v1.5 10 2.2h-2.4V74.5zm3.5 3.7v-1h16.5v10.5H59.6v-9.5zm-7.9 8.2s-.1 0-.1-.1l-.8-.3h-.1l-.8-.1h-9.1v-.1l.5-1.3v-.1l.2-1.9v-.1l-.2-1.9v-.1l-.6-1.4H50l.7-.1h.1l.8-.3h.1l.6-.5 2.8-2.7v14.4L52.3 87l-.6-.6zm34 4.5l-1.4.6-.1.1-1 .6s-.1 0-.1.1l-.3.3V72.2l.3.3s.1.1.2.1l1.1.7 1.4.6 1.2.3v16.4l-1.3.3zm124.6.6l-5.4-.9-4.8-.2V74.3l4.9-.2 5.3-.9 5.4-1.5 4.6-2.2v25.6l-4.7-2.2-5.3-1.4zm11 4V69.3h3.1v26.2h-3.1zm-7.1 13.2l-.2.2-.3.1-.3-.1-.2-.2-.1-.3.1-.3.2-.2.3-.1.3.1.2.2.1.3-.1.3zm-26.3 15.2l-.2.2-.3.1-.3-.1-.2-.2-.1-.3.1-.3.2-.2.3-.1.3.1.2.2.1.3-.1.3zm-24.4 13.8l-.2-.2-.1-.3.1-.3.2-.2.3-.1.3.1.2.2.1.3-.1.3-.2.2-.3.1-.3-.1zm-35.2 17.5l4-3 4.6-1.9.4-.1-5 2.9-4.9 3.3.9-1.2zm8.4-1.9l2.4-.5 6.3 1.3 5.3 3.6 3.6 5.3 1.3 6.3-1.3 6.3-3.6 5.3-.6.4-.4-.4s-.1 0-.1-.1h-.1l-2-.5h-.3l-2 .5c-.1 0-.2.1-.2.1l-1.5 1.5s0 .1-.1.1v.1l-.5 2v.3.2l-3.8.8-.8-.2-5.6-1.1-5.3-3.6-3.6-5.3-1.3-6.3 1.3-6.3 3.6-5.3 5.3-3.6 4-.9zm60.6-13.1l-.2.2-.3.1-.3-.1-.2-.2-.1-.3.1-.3.2-.2.3-.1.3.1.2.2.1.3-.1.3zm-23.2 14l-.2.2-.3.1-.3-.1-.2-.2-.1-.3.1-.3.2-.2.3-.1.3.1.2.2.1.3-.1.3zm-7.4 21.1c0-.1 0-.1 0 0h0l1.3-.4.2.7.4 1.4.2.7.4 1.4-3 1.6-6 3.2-1.2.6-1.9-6.2 3.5-1.1 6.1-1.9zm5.5-1.2l1.5-.5 1.7-.5 2-.6.6 1.9-.3.2-7.5 4-.6-1.9-.5-1.6 3.1-1zm2.9-13.1l3.9 12.8h0l-.7-2.2-3.2-10.6h0zm14.6-7.6l.6 2 .6 2 .2.5 2.5 8.2-7.2 3.8-.7-2.3-1-3.3h0 0l-1.4-4.5-.5-1.7-.7-2.4 7.6-2.3zm7.8 11.8l-.3 1.7v.2l.3 1.7c0 .1 0 .1.1.2l1 1.5c0 .1.1.1.1.1l1.5 1c.1 0 .1.1.2.1l1.7.3h.1.1l1.7-.3-8 15.6c0 .1-.1.1-.1.2v9 1.3h-1.1 0-3.6-4.2-13.8-13.1-.5v-1.3-3.1h1 3.3.9 2.1a.47.47 0 0 0 .5-.5v-1-.7-2.2-4.1a.47.47 0 0 0-.5-.5h-.3-2.7-2.6l5.6-2.9 11.4-6 19.2-10.3zm4.6-2.2l1.5.3 1.3.9.9 1.3.2 1.1.1.4-.3 1.5-.9 1.3h0l-1.3.9-1.5.3-1.5-.3-1.3-.9-.9-1.3-.3-1.5.3-1.5.9-1.3 1.3-.9 1.5-.3zm-45 26l-.3-.1.3-.1v.2zm.5-4.6a.47.47 0 0 0-.5.5v2.9l-.8.2-.9-2.9-.4-1.2 1-.8c.2-.2.3-.5.1-.7s-.5-.3-.7-.1l-.7.6-.8-2.7-.5.1.4-.3v-.1l2.6-.8 1.6 5.3h-.4zm-15.7 3.6l-5-.7-1-.4-3.6-1.5-.5-.4.6.4c.1 0 .1.1.2.1l.6.1 5.9 1.2h.1.1l2.4-.5h.2.1.1l1.3-.2.2.7v.1c0 .1.1.1.1.2l.1.1h0l.5.5-2.4.3zm5.5.2l-.3-.1-1.4-.4-.7-.7-.6-.6-.2-.8-.2-.8v-.1l.5-1.8 1.3-1.3 1.8-.5 1.8.5.6.6.2.2.5.5.1.2.4 1.5-.5 1.8-1.3 1.3-2 .5zm13.2-16l-.2 1.3-1.2 2.9-2.1.6 1.6-3.7v-.1l.6-4.4v-.2l-.2-1.3 1.5-1.3.4 2.7-.4 3.5zm-5.3 3.7l1.3-6.3 1.7-1.4.1.7-.5 4.2-1.6 4-1.1 1.5-1.8.6 2-3c-.2-.2-.1-.3-.1-.3zm-2.6 3.9l.2.5v.1l.1.4-1.9 1.4-.2-.2.5-.3c.1 0 .1-.1.1-.1l1.2-1.8zm-.8 5c0-.1 0-.1 0 0v-.1-.1l-.4-1.3 1.8-1.4.5 1.7-2.1 1.6.2-.4zm6.2.6h2.5 2.8v6.9h-2.8-2.5v-6.9zm8.2 0v3.6 2.1.6.5h-1.6-.4v-6.9h2zm-12.8 12.3v-.8h5.1v.8h-5.1zm-21.8-11.5s.1 0 .1.1l4.7 2h.1l5.1.7h.1.1l3.1-.4h.1.1l.7.2.8.2.5.1h.1.1l2-.5c.1 0 .2-.1.2-.1l1.5-1.5.1-.1.1-.3.4-.2s.1 0 .1-.1l2.2-1.7.3.9 1 3.4c0 .1.1.2.2.2h.1v.2.1.1.1.1h.1s.1 0 .1.1h0l.3.1.7.3v2.7a.47.47 0 0 0 .5.5h1v2.6h-3.5-1.2-1.6-8.6-5.5-4.2l-2.3-9.8h.3zm3.1 11.5h-.8v-.8h18.6v.8h-4.4-11.5-1.9zm13.3 1h4.9 6.1 1 13.1 0H187h3.7v1.6h-49.6v-1.6h7zm-6.1 2.6h47.7l-4 3.1H146l-4-3.1zm4.3 4.2h39.1l-.4 3h-38.7v-3zm-6.6 9.2h3.3 6.4 1 4.4 15.8 1.8 4.3 4.2 21v1.1h-.7-61.1-9.5-.7v-1.1h.8 9zm-13.8 2.2h4.8 9.1v2h-15.1l1.2-2zm-12.5 3h20.7v1.7 10.2h-8.6-2.9-.2-.7-.2-1.5-.9-.6-5.1v-5.4-6.5zm0 12.9h5.1.6.9 1.5.2.7.2 2.9 9.1a.47.47 0 0 0 .5-.5v-10.7-1.7h5.2H155h10.3.7l10.9-.9H189v2.6 4.7 9h-63.3-5.6-.8-.6-5.1v-2.5zm92.2-13.8v9h-12.9a.47.47 0 0 0-.5.5v3.3h-2.3v-10.2-2.6h15.7zm2.3 0h2.3v12.8h-.5v-3.3a.47.47 0 0 0-.5-.5h-2.6v-9h1.3zm.8 9.9v2.8h-15.5v-2.8h15.5zm17.5-2.8l-7.7 7.7s0 .1-.1.1c-.1.1-.1.2-.1.3v1.1h-28.5v-2.5h19.3 1.5a.47.47 0 0 0 .5-.5V219h15.1v7.1zm-18.3-8.1h-1.8-29.3-.1l-10.3.9h-11.3H141v-2h17.3 1.1 22.3 3.3 23.6v1.1h-.7zm-16.3-4.3h-10.8-4.2-4.3-1.8-15.8-4.4-1-6.5-2.7v-4.2h45.4 6.1v4.2zm5.3-26.2l2-3.9 1.9 6.3-3.9 1.2v-3.6zm44-42.7l1.6 5.2.8 2.6 4.8 15.7-4.2 6-9.8-32.1 6.8 2.6zM233 142l10.1 33.1-40.9 12.5-2-6.5 5.4-10.5.1-.1 1-1.5c0-.1.1-.1.1-.2h0l.3-1.7v-.2l-.1-.5-.2-1.2c0-.1 0-.1-.1-.2l-1-1.5h0l-.1-.1s0-.1-.1-.1h0l-.7-.5-.7-.5h0c-.1 0-.1-.1-.2-.1l-1.7-.3h-.2l-1.7.3c-.1 0-.1 0-.2.1l-1.5 1-.1.1-3.2 1.7-.2-.7-3-9.9L233 142zm-52.2 16.4l3.8 12.5-4.7 2.5-4.2-13.8 2.7-.8 2.3-.7.1.3zm-5.9.3c-.1 0-.1.1-.2.1v.1l-.1.1-.5 1.9v.1.1l3.1 10.3-2 .6-1.7.5-1.5.5-3.1 1c-.1-.3-.4-.4-.6-.3l-1.8.6h0l-5.4 1.6v-1.2l.3-.7v-.1l.1-.4.6-4.7v-.1l-.4-3.4 8-6.6h5.2zm48.7-34.3l.1.3-.1.3-.2.2-.3.1-.3-.1-.2-.2-.1-.3.1-.3.2-.2.3-.1.3.1.2.2zm3.8-.9c-.1 0-.1 0 0 0l-2.7 1.6.1-.2v-.3l-.1-.5v-.1-.1-.1-.1l-.4-.4c-.1-.1-.1-.1-.2-.1l-.6-.2h-.3l-.6.2h0c-.1 0-.2.1-.3.1l-.4.4c-.1.1-.1.1-.1.2l-.2.6v.3l.1.5v.1.1.1.1l.5.5h.1.1l.2.1-24.1 13.9.1-.2v-.3l-.2-.6c0-.1-.1-.2-.1-.2l-.4-.4c-.1-.1-.1-.1-.2-.1l-.6-.2h-.3l-.6.2c-.1 0-.2.1-.2.1l-.4.4c-.1.1-.1.1-.1.2l-.2.6v.3l.2.6c0 .1.1.1.1.2l.4.4c.1.1.1.1.2.1l.2.1-21.1 12.2-.2-.6c0-.1-.1-.1-.1-.2l-.4-.4c-.1-.1-.1-.1-.2-.1l-.6-.2h-.2l-.6.2c-.1 0-.2.1-.2.1l-.4.4c-.1.1-.1.1-.1.2l-.2.6v.3l.1.5c0 .1.1.2.1.3l.4.4-.5.3h0l-2.8 2.3h-8.5a.5.5 0 1 0 0 1h7.3l-7.6 6.1-1.8 1.7c-.1 0-.2.1-.3.2l-1.8 1.6-1.1-5.6c0-.1 0-.1-.1-.2l-3.7-5.5c0-.1-.1-.1-.1-.1l-5.5-3.7c-.1 0-.1-.1-.2-.1l-6.5-1.3h-.2l-2.5.5-1 .2 4.5-2.6s.1 0 .1-.1l22.1-12.8h0 0v.3l.2.6c0 .1.1.1.1.2l.4.4s.1 0 .1.1h.1l.6.2h.1.1l.6-.2c.1 0 .2-.1.2-.1l.4-.4c.1-.1.1-.1.1-.2l.2-.6v-.3l-.1-.5c0-.1-.1-.2-.1-.3l-.4-.4h0c-.1-.1-.1-.1-.2-.1h0l21.2-12.3-.1.2v.1.2l.2.6c0 .1.1.2.1.2l.4.4c.1.1.1.1.2.1l.6.2h.1.1l.6-.2h0c.1 0 .2-.1.3-.1l.4-.4h0l.2-.2.2-.6h0v-.3l-.2-.6c0-.1-.1-.1-.1-.2l-.4-.4c-.1-.1-.1-.1-.2-.1h-.2l24.1-14-.1.2h0v.3l.2.6c0 .1.1.1.1.2l.4.4c.1.1.2.1.3.2l.6.2h.1.1l.6-.2h.1s.1 0 .1-.1l.4-.4c.1-.1.1-.1.1-.2l.2-.7v-.2l-.2-.6c0-.1-.1-.2-.1-.2l-.4-.4c-.1-.1-.1-.1-.2-.1l-.2-.1 2.6-1.5 4.9-2.9.2-.1 2.2-1.3 15.6-8.8-3.1 4.7c0 .1-.1.1-.1.2l-1.3 6.5v.2l1.3 6.5c0 .1 0 .1.1.2l3.7 5.5.2.2 1.9 1.3 3.2 2.2-5-.4h-.2l-13.3 3.8zm45.1-14.7l-2 4.9-3.2 4.2-4.2 3.2-4.9 2-5.3.7-5.3-.7-4.9-2-1.1-.9 11.3.9h.1l6.5-1.3c.1 0 .1 0 .2-.1l5.5-3.7c.1 0 .1-.1.1-.1l3.7-5.5c0-.1.1-.1.1-.2h0l1.3-6.5v-.2L269 97c0-.1 0-.1-.1-.2l-3.7-5.5h0l-.1-.1h0l-5.5-3.7c-.1 0-.1-.1-.2-.1l-3.9-.8-2.6-.5h-.2 0l-3.9.8-2.6.5h0-.1-.1l-.6.4-1.3.7v-3.3l1.8-.7 1.7-.7 5.3-.7 5.1.7 2.9 1.2.5.2h0l1.7.7.3.2 3.9 3 3.3 4.3 2 4.9.7 5.3-.8 5.2zM132.6 77.2h-4.4a.47.47 0 0 0-.5.5V87a.47.47 0 0 0 .5.5h4.4a.47.47 0 0 0 .5-.5v-.4-9c0-.2-.2-.4-.5-.4zm-.5 1v8.3h-3.4v-8.3h3.4zm9.3-1H137a.47.47 0 0 0-.5.5V87a.47.47 0 0 0 .5.5h4.4a.47.47 0 0 0 .5-.5v-.4V78v-.4c0-.2-.3-.4-.5-.4zm-3.9 1h3.4v8.3h-3.4v-8.3zm21.9-.1v-.4a.47.47 0 0 0-.5-.5h-4.4a.47.47 0 0 0-.5.5V87a.47.47 0 0 0 .5.5h4.4a.47.47 0 0 0 .5-.5v-.4h0v-8.5zm-1 .1v8.3H155v-8.3h3.4z"/><path d="M135.4 160.7h0 0l-.4.3-2.4 1.6c-.1 0-.1.1-.1.1l-1.9 2.9s0 .1-.1.2h0l-.7 3.4v.1.1l.7 3.4c0 .1 0 .1.1.2l1.9 2.9c0 .1.1.1.1.1l2.9 1.9c.1 0 .1.1.2.1l3.4.7h.1.1l3.4-.7c.1 0 .1 0 .2-.1l2.9-1.9c.1 0 .1-.1.1-.1l1.1-1.6h0l.3-.4.6-.8c0-.1.1-.1.1-.2l.7-3.4v-.2l-.7-3.4c0-.1 0-.1-.1-.2h0l-1.9-2.9c0-.1-.1-.1-.2-.2l-1-.7-1.8-1.2c-.1 0-.1-.1-.2-.1l-1.5-.3-1.8-.4h-.2 0l-1.8.4-1.2.2-.4.1c-.4 0-.4 0-.5.1zm8.6 2l1 .7 1.8 2.7.6 3.2-.6 3.2-.5.8-.3.4h0l-1 1.6-2.7 1.8-3.2.6-1.4-.3-1.8-.4-2.7-1.8-1.8-2.7-.6-3.2.6-3.2 1.8-2.7 2.4-1.6.3-.2.3-.1 1.2-.2 1.7-.3 1.8.3 1.4.3 1.7 1.1zM243.3 93l-.6.4-.1.1-.5.8-.5.8-2 3c0 .1-.1.1-.1.2h0v.2h0l-1 5.1v.2l1.1 5.3h0c0 .1 0 .1.1.2l3 4.5h0l.1.1 4.5 3h0c.1 0 .1.1.2.1l1.2.2 4.1.8h.1.1l5.3-1.1c.1 0 .1 0 .2-.1l4.5-3c.1 0 .1-.1.1-.1l3-4.5c0-.1.1-.1.1-.2h0l1.1-5.3v-.2l-1.1-5.3c0-.1 0-.1-.1-.2l-3-4.5-.1-.1s0-.1-.1-.1l-4.5-3h0-.1-.1 0l-3.8-.7-1.6-.3h0-.2l-1.6.3-3.8.8c-.1 0-.1 0-.2.1l-3.7 2.5zm22.9 10.6l-1 5.1-2.9 4.3-4.3 2.9-5.1 1-5.1-1-4.3-2.9-2.9-4.3-1-5.1 1-5v-.2l2-2.9.6-.8.4-.6 4.3-2.9 3.7-.7 1.5-.3 1.5.3 3.7.7 4.3 2.9 2.9 4.3.7 5.2zm-4.8-3.7l-1.9-2.9c0-.1-.1-.1-.1-.1l-2.9-1.9c-.1 0-.1-.1-.2-.1l-3.4-.7h-.2l-3.4.7c-.1 0-.1 0-.2.1l-2.9 1.9c-.1 0-.1.1-.1.1l-1.9 2.9c0 .1-.1.1-.1.2l-.7 3.4v.2l.7 3.4c0 .1 0 .1.1.2l1.9 2.9c0 .1.1.1.1.1l2.9 1.9c.1 0 .1.1.2.1l3.4.7h.1.1l3.4-.7c.1 0 .1 0 .2-.1l2.9-1.9c.1 0 .1-.1.1-.1l1.9-2.9c0-.1.1-.1.1-.2l.7-3.4v-.2l-.7-3.4c-.1 0-.1-.1-.1-.2zm-.9 6.9l-1.8 2.7-2.7 1.8-3.2.6-3.2-.6-2.7-1.8-1.8-2.7-.6-3.2.6-3.2 1.8-2.7 2.7-1.8 3.2-.6 3.2.6 2.7 1.8 1.8 2.7.6 3.2-.6 3.2z"/><path d="M260.3 100.4l-1.7-2.5c0-.1-.1-.1-.1-.1l-2.5-1.7c-.1 0-.1-.1-.2-.1l-3-.6h-.2l-3 .6c-.1 0-.1 0-.2.1l-2.5 1.7c-.1 0-.1.1-.1.1l-1.7 2.5c0 .1-.1.1-.1.2l-.6 3v.2l.6 3c0 .1 0 .1.1.2l1.7 2.5c0 .1.1.1.1.1l2.5 1.7c.1 0 .1.1.2.1l3 .6h.1.1l3-.6c.1 0 .1 0 .2-.1l2.5-1.7c.1 0 .1-.1.1-.1l1.7-2.5c0-.1.1-.1.1-.2l.6-3v-.2l-.6-3c0-.1-.1-.2-.1-.2zm-.9 6l-1.6 2.3-2.3 1.6-2.8.5-2.8-.5-2.3-1.6-1.6-2.3-.5-2.8.5-2.8 1.6-2.3L250 97l2.8-.5 2.8.5 2.2 1.5 1.7 2.4.5 2.8-.6 2.7zm-4.5-3.6c0-.1-.1-.2-.1-.2l-.3-.5-.2-.2h0l-.5-.3c-.1 0-.2-.1-.3-.1l-.6-.1h-.3l-.6.1c-.1 0-.2.1-.3.1l-.5.3c-.1 0-.1.2-.2.2l-.3.5c0 .1-.1.1-.1.2l-.1.6v.3l.1.6c0 .1.1.2.1.3l.3.5c0 .1.2.1.2.2l.5.3c.1 0 .2.1.3.1l.6.1h.1.2 0l.6-.1c.1 0 .2-.1.2-.1l.5-.3c.1 0 .1-.2.2-.2l.3-.5c0-.1.1-.2.1-.3l.1-.6v-.3-.6zm-1 1.3l-.3.4-.4.3-.5.1-.5-.1-.4-.3-.3-.4-.1-.5.1-.5.3-.4.4-.3.5-.1.5.1.4.3.3.4.1.5-.1.5zm-123.1 55l-1.1.7-.1.1h0l-2.8 4.2c0 .1-.1.1-.1.2l-1 4.9v.2l1 4.9c0 .1 0 .1.1.2l.5.7 1 1.5 1.3 2c0 .1.1.1.1.1l.5.3.5.3 3.2 2.2s.1.1.2.1l3.2.8h.1c.1 0 .2 0 .2-.1l5.1-2.9 1.2-.7 5.8-3.4 1.4-.8.1-.1v-.1-.1l1-4.9v-.2l-1-4.9c0-.1-.1-.2-.1-.2l-1.4-2-.4-.6-.3-.5-.2-.3-.3-.4-.1-.2c0-.1-.1-.1-.1-.1l-.3-.2-3.8-2.6c-.1 0-.1-.1-.2-.1l-4.9-1h-.2l-3.7.7-1.2.2c-.1 0-.1.1-.2.1l-3 2zm8.3-2.2l4.7.9 3.8 2.5.2.2.1.1.3.4.2.3.4.6.4.6 1.3 2 .9 4.7-1 4.6-1.1.6-2.7 1.6h-.1l-3 1.8-1.2.7-4.9 2.8-3-.7-.3-.2-2.8-1.9-.9-.6-1.3-1.9-1-1.5-.4-.6-.9-4.7.9-4.7 2.7-4 1-.7 3-2 1.1-.2 3.6-.7zm11-79.7h-4.4a.47.47 0 0 0-.5.5V87a.47.47 0 0 0 .5.5h4.4a.47.47 0 0 0 .5-.5v-.4V78v-.4c0-.2-.2-.4-.5-.4zm-.5 1v8.3h-3.4v-8.3h3.4zm18-1h-4.4a.47.47 0 0 0-.5.5V87a.47.47 0 0 0 .5.5h4.4a.47.47 0 0 0 .5-.5v-.4V78v-.4c0-.2-.2-.4-.5-.4zm-3.9 1h3.4v8.3h-3.4v-8.3zm12.7-1h-.8-3.6a.47.47 0 0 0-.5.5V87a.47.47 0 0 0 .5.5h3.6.8a.47.47 0 0 0 .5-.5v-.4V78v-.4c0-.2-.3-.4-.5-.4zm-3.9 1h3.1.3v8.3h-.3-3.1v-8.3zm6.6 98l-1.3.7-1.3.7c-.2.1-.3.4-.2.7l1.3 2.4 1 1.8c.1.2.3.3.4.3s.2 0 .2-.1l9.2-4.9 1.9-1a1.38 1.38 0 0 0 .3-.4v-.3l-2.3-4.3c-.1-.2-.4-.3-.7-.2L183 174l-3.9 2.2zm8.5-3.4l1.8 3.4-1.5.8-8.8 4.6-.7-1.4-1-2 .8-.4 9.4-5zM40.2 80.7v-.1l-.6-1.5s0-.1-.1-.1l-.7-.9s0-.1-.1-.1l-.1-.2-.1-.1h-.1l-.9-.7-.3-.2s-.1 0-.1-.1l-.4-.2-.7-.3-.5-.2h-.1l-1.6-.2h-.1l-1.6.2H32l-1.5.6h-.1-.1l-1.3 1-.1.1-1 1.3s0 .1-.1.1l-.6 1.5v.1.1l-.2 1.5v.1l.2 1.5v.1.1l.6 1.4.1.1s0 .1.1.1l.3.4.3.4.4.5.1.1.2.2 1 .8.1.1h0l1.4.6h.1l1.6.2h.1l1.6-.2h.1l1.5-.6s.1 0 .1-.1l1.3-1 .1-.1.5-.7.5-.6v-.1h0l.6-1.4V84v-.1l.2-1.5v-.1l.1-1.6h0zm-1 3.1l-.5 1.2-1 1.3-1.2.9-1.3.6-1.4.2-1.4-.2-1.4-.5h0l-1-.8-.2-.1-.3-.4-.3-.4-.3-.4v-.1l-.5-1.3-.2-1.5.2-1.4.6-1.4.9-1.2 1.2-.9 1.4-.6 1.5-.2 1.5.2 1 .4.4.2.2.2.9.7h0 0 0 0l.2.3.7.9.5 1.3.2 1.5-.4 1.5zM37 81.5l-.1-.3-.2-.5v-.1-.1l-.5-.6-.1-.1-.6-.5s-.1 0-.1-.1l-.7-.3h-.1l-.8.1h-.1-.1l-.6.1h-.1-.1l-.7.3s-.1 0-.1.1l-.6.5-.1.1-.5.6s0 .1-.1.1l-.2.5-.1.2v.1l-.1.7v.1l.1.7v.1l.3.7s0 .1.1.1l.5.6.1.1.6.5s.1 0 .1.1l.7.3h.1l.7.1h.1.1l.7-.1h.1l.7-.3s.1 0 .1-.1l.6-.5.1-.1.5-.6s0-.1.1-.1l.3-.7v-.1l.1-.7v-.1l-.1-.8c0 .1 0 0 0 0zM36 83l-.2.6-.4.4-.5.4-.6.2-.6.1-.6-.1-.6-.2-.4-.4-.4-.5-.2-.5-.1-.6.1-.6.1-.2.2-.4.4-.5.5-.4.6-.2.6-.1.6.1.6.2.5.4.4.5.2.4.1.2.1.6-.4.6z"/></svg>