<svg xmlns="http://www.w3.org/2000/svg" baseProfile="tiny" viewBox="0 0 300 300" overflow="visible" fill="#221f1f" xmlns:v="https://vecta.io/nano"><path d="M185.6 217.9h-70.9c-.5 0-.9.2-1.1.5s-.3.8-.1 1.3l2 5.5c.3.9 1.3 1.6 2.3 1.6h65c.9 0 1.9-.7 2.3-1.6l2-5.5c.2-.5.1-.9-.1-1.3-.5-.3-.9-.5-1.4-.5zm.7 1.6l-2 5.5c-.2.6-1 1.2-1.7 1.2h-65c-.7 0-1.5-.5-1.7-1.2l-2-5.5c-.1-.3-.1-.5 0-.7s.4-.3.7-.3h70.9c.3 0 .5.1.7.3.2.1.2.4.1.7zm14.7-1.6h-7.6a1.79 1.79 0 0 0-1.8 1.8v3.8a1.79 1.79 0 0 0 1.8 1.8h7.6a1.79 1.79 0 0 0 1.8-1.8v-3.8a1.79 1.79 0 0 0-1.8-1.8zm1.2 5.5c0 .7-.5 1.2-1.2 1.2h-7.6c-.7 0-1.2-.5-1.2-1.2v-3.8c0-.7.5-1.2 1.2-1.2h7.6c.7 0 1.2.5 1.2 1.2v3.8zm-95.6-5.5H99a1.79 1.79 0 0 0-1.8 1.8v3.8a1.79 1.79 0 0 0 1.8 1.8h7.6a1.79 1.79 0 0 0 1.8-1.8v-3.8c-.1-1-.8-1.8-1.8-1.8zm1.2 5.5c0 .7-.5 1.2-1.2 1.2H99c-.7 0-1.2-.5-1.2-1.2v-3.8c0-.7.5-1.2 1.2-1.2h7.6c.7 0 1.2.5 1.2 1.2v3.8zm125.8-101.1c-.1.5-.2 2.9-.2 7l.2 8.1c.1.6.9 1.2 1.6 1.2s1.5-.7 1.6-1.2.2-3.8.2-8.1l-.2-7c-.1-.6-.9-1.2-1.6-1.2-.7-.1-1.5.6-1.6 1.2zm.6 0c0-.3.6-.7 1-.7s1 .5 1 .7c.1.4.2 2.7.2 6.9l-.2 8c0 .3-.6.7-1 .7s-1-.5-1-.7c-.1-.4-.2-3.4-.2-8l.2-6.9zm-33-16.6c-9.9-.5-38.6-1.3-51.6-1.3s-41.7.8-51.6 1.3c-9.3.5-10.5 3-11.3 7.2-.9 4.7-2.2 16.1-2.7 23.2l-.3 4c-.5 6.2-.9 11.4.3 12.7 1.3 1.4 4.2 1.7 7.3 1.9.8.1 1.6.1 2.4.2 4.2.4 35.8 1.6 55.9 1.6 20.2 0 51.7-1.2 55.9-1.6.8-.1 1.6-.1 2.4-.2 3-.2 5.9-.5 7.3-1.9 1.2-1.3.9-6.5.3-12.7l-.3-3.9c-.5-7-1.7-18.4-2.7-23.2-.8-4.2-2-6.8-11.3-7.3zm13.7 34.4c.4 4.4.9 11-.2 12.3-1.2 1.3-3.9 1.5-6.9 1.7-.8.1-1.6.1-2.4.2-4.2.4-35.7 1.6-55.9 1.6s-51.7-1.2-55.9-1.6c-.8-.1-1.6-.1-2.4-.2-2.9-.2-5.7-.4-6.9-1.7-1.1-1.2-.6-7.9-.2-12.3l.3-4c.5-7 1.7-18.4 2.6-23.1.8-3.9 1.7-6.3 10.8-6.7 9.9-.5 38.6-1.3 51.6-1.3s41.7.8 51.6 1.3c9 .4 10 2.9 10.8 6.7.9 4.7 2.2 16.1 2.6 23.1.3 1.3.4 2.7.5 4zm-30.4 57.1l.4-.3-.5-.2c-1.4-.6-3.3-1-5.6-1h-57.3c-3 0-4.8.6-5.8 1l-.3.1h0 0l-.1.1.4.3c3.5 2.4 6.1 6.2 8.1 11.6l.1.2h52.5l.1-.2c1.8-5.4 4.5-9.2 8-11.6zm-63-.9h57.3c2.1 0 3.6.3 4.6.6H117c1-.4 2.4-.6 4.5-.6zm-5 .9h67a.78.78 0 0 0-.4.4H117c-.2-.2-.3-.3-.5-.4zm59.3 11.2h-51.6c-.1-.2-.2-.4-.3-.7h52.2c-.1.3-.2.5-.3.7zm.4-1h-52.4c0-.1-.1-.2-.1-.4h52.7c-.1.2-.1.3-.2.4zm.3-.6h-53c-.1-.2-.2-.5-.3-.7h53.6c-.1.2-.2.4-.3.7zm.4-1H123c-.1-.1-.1-.2-.2-.4H177c.1.1 0 .3-.1.4zm.3-.7h-54.5c-.1-.2-.2-.5-.4-.7h55.2c0 .3-.1.5-.3.7zm.6-1h-55.5c-.1-.1-.1-.2-.2-.4H178c-.1.2-.2.3-.2.4zm.3-.6h-56.2c-.1-.2-.3-.5-.4-.7h57.1c-.2.2-.3.4-.5.7zm.6-1h-57.4c-.1-.1-.2-.2-.2-.4H179c-.1.1-.2.3-.3.4zm.5-.7h-58.3c-.2-.2-.3-.5-.5-.7h59.3c-.2.3-.4.5-.5.7zm.7-1h-59.7a1.38 1.38 0 0 1-.3-.4h60.3a1.38 1.38 0 0 1-.3.4zm.5-.6h-60.8c-.2-.2-.4-.5-.6-.7h62c-.2.2-.4.4-.6.7zm.9-1h-62.5l-.4-.4h63.2c-.1.1-.2.3-.3.4zm-63.2-.7c-.3-.2-.5-.5-.8-.7h65.4c-.3.2-.5.5-.8.7h-63.8zm83.2-94.2c-9.9-.5-38.7-1.3-51.7-1.3s-41.8.8-51.7 1.3c-9.4.5-11.6 3.2-12.7 8.4-.9 4.8-2.2 16.3-2.7 23.4l-.3 3.9c-.5 6.1-1 12 .7 13.8 1.7 1.9 4.9 2.1 8.2 2.4.8.1 1.6.1 2.3.2 4.2.4 35.9 1.6 56.1 1.6s51.9-1.2 56.1-1.6c.8-.1 1.6-.1 2.3-.2 3.3-.3 6.5-.5 8.2-2.4s1.2-7.7.7-13.8l-.3-3.9c-.5-7.1-1.7-18.6-2.7-23.4-.9-5.2-3.1-8-12.5-8.4zm15.1 35.7c.5 5.7 1 11.7-.6 13.4s-4.5 1.9-7.8 2.2c-.8.1-1.6.1-2.4.2-4.2.4-35.8 1.6-56 1.6s-51.8-1.2-56-1.6c-.8-.1-1.6-.1-2.4-.2-3.4-.3-6.3-.5-7.8-2.2-1.6-1.7-1.1-7.6-.6-13.4l.3-3.9c.5-7.1 1.7-18.5 2.7-23.3.9-4.3 2.2-7.4 12.1-7.9s38.6-1.3 51.7-1.3c13 0 41.7.8 51.7 1.3 9.9.5 11.3 3.6 12.1 7.9.9 4.7 2.2 16.2 2.7 23.3l.3 3.9z"/><path d="M63.9 144.9v1.2c0 .3.1 2.9 1.6 4.4.6.6 2.2 1.9 3.8 3.3v43.6h9.8v.7.6c0 .3 0 .6.1.9v.4c0 .4 0 .8.1 1.2v.3c0 .4 0 .8.1 1.2v.2l.4 6.1-1.1 6.1c-.1.8.4 3.4 1 6.4v38.7c0 1.1.9 2.1 2.1 2.1h15.4c1.1 0 2.1-.9 2.1-2.1v-15.5h101v15.5c0 1.1.9 2.1 2.1 2.1h15.4c1.1 0 2.1-.9 2.1-2.1v-36.4c.9-3.9 1.6-7.7 1.5-8.7-.2-1.8-1-5.6-1.1-6.1 0-.3.1-1.6.3-3.5v-.4-.3l.4-7.2h9.8v-43.7l3.8-3.3c1.6-1.5 1.6-4.3 1.6-4.4V145c2.9-.2 6.4-1 6.8-1.9.4-.8 1-6.7 1-14.4 0-7.2-.5-11.6-1-12.5-.4-.9-3.9-1.7-6.8-1.9v-5.1c0-3-2.6-4-4-4.1h-1.1V37.9h-.5-.5H69.3v67.2h-1.4c-1.4.1-4 1.1-4 4.1v5.1c-2.9.2-6.4 1-6.8 1.9-.5 1-1 5.3-1 12.5 0 7.7.6 13.5 1 14.4.4.8 3.9 1.6 6.8 1.8zm2 5.2c-1.4-1.3-1.4-3.7-1.4-3.9V145h.5.4.1v1.2s0 2.2 1.1 3.3l4.1 3.6.1.1c1.7 1.4 3.1 2.6 3.8 3.3 1.7 1.6 2 3.2 2 6.4v5.9h-1v-5.9c0-3.1-.2-4.4-1.7-5.7-.7-.6-2.2-1.9-3.7-3.1l-.6-.5c-1.5-1.6-3-2.9-3.7-3.5zm.1-4v-1.2c1.1-.1 2.2-.2 3.2-.4v6.4c-1-.9-1.9-1.6-2.3-2-.7-.7-.8-2.3-.9-2.8zm11.2 23.1v4.5H75v-4.5h.1 0 2.1zm-7.3 27.6v-42.6c1.3 1.1 3 2.5 3.7 3.2 1.3 1.2 1.5 2.3 1.5 5.3v5.9h-.7v5.7h2.8v1.1l1.7.6-.1 7.2v4.2c0 2 .1 5.2.3 9.4h-9.2zm7.9-21.8v-.7-5.7-.2l1.2-.3c-.1 2.4-.1 4.8-.1 7.3l-1.1-.4zm1.2-7.6l-1.8.5v-5.2c0-3.4-.3-5.1-2.2-6.9-.7-.7-2.2-1.9-3.7-3.2l-1.4-1.2v-7c.1 0 .2-.1.3-.1h.2c.1 0 .2 0 .3-.1.1 0 .2-.1.3-.1h.1c.6-.2 1.2-.4 1.5-.7.1-.1.2-.1.2-.2s.1-.1.1-.2c.4-.8 1-6.7 1-14.4 0-7.2-.5-11.6-1-12.5 0-.1-.1-.1-.1-.2l-.2-.2c-.3-.2-.7-.4-1.1-.5-.1 0-.3-.1-.4-.1H71c-.1 0-.2-.1-.3-.1s-.2 0-.2-.1c-.1 0-.2 0-.3-.1-.1 0-.2 0-.3-.1v-7.5h12.7v1.5h0H84c-1.4 8.8-3.3 24.5-4.2 38.5l-.8 20.2zm136.4-58.6c.2 1 .3 2.1.5 3.2v.2c.1.4.1.9.2 1.3.8 5.3 1.6 12.2 2.3 19.6v.1c0 .4.1.8.1 1.3s.1.9.1 1.4c0 .2 0 .5.1.7.1.8.1 1.6.2 2.3v.5c.1 1.7.3 3.4.4 5.1v.2c.1.9.1 1.7.2 2.6.4 6.4.6 12.2.8 17.4-.2.1-.3.2-.5.2 0 0-.1 0-.2.1l-.6.3h-.1c-4 1.5-11.4 2.7-22.2 3.7h-.2 0c-18.2 1.5-40.4 1.6-46.7 1.6-12 0-31.5-.4-46.8-1.7h0c-12.1-1-20-2.5-23.5-4.3.1-5.2.4-11 .8-17.4.9-14.8 2.9-30.7 4.2-38.6h.1v-.7c.3-1.8.5-3 .7-3.7 0-.1.4-6.4 10-7.4 10-1.1 31.6-1.1 54.6-1.1s44.6 0 54.6 1.1c9.5 1 10 7.1 10 7.5.2.7.4 1.9.7 3.5v.8h.2zm-108.6 67.3c-13.3-.9-22.8-2.5-27-4.4-.1-.1-.2-.1-.3-.2 0-1.5.1-3.1.1-4.8v-1.1c3.7 1.7 11.1 3 23.3 3.9l3.9 6.6zm-3.1-6.5c15.3 1.2 34.4 1.6 46.3 1.6 6.2 0 28.1-.1 46.3-1.6l-3.9 6.5c-17.3 1.2-36.6 1.3-42.4 1.3-10.4 0-27.7-.4-42.5-1.3l-3.8-6.5zm-10.9 5.7c4.1.6 8.9 1 14.5 1.4h.6 0c14.7 1 31.8 1.3 42.1 1.3 7.6 0 38.5-.2 57.5-2.8l.1 17.3-11.3 1.4-.7.1c-2.9.4-6.1.8-9.2 2.4-1-.8-3.1-1.9-7.5-1.9h-57.3c-4.7 0-6.8 1.3-7.6 2-3.2-1.7-6.4-2.1-9.4-2.5l-.7-.1-10.9-1.4v-17.2zm84.5 34.1l-1 1h-52.7l-1-1 .7-.2-.1-.3c-.3-.7-.5-1.3-.8-1.9 0-.1-.1-.1-.1-.2-.3-.6-.6-1.2-.8-1.8 0 0 0-.1-.1-.1-2.1-4-4.5-6.4-7.1-8 .9-.7 2.9-1.7 7.1-1.7h57.3c4 0 6.1 1 6.9 1.6-2.6 1.5-5.1 3.9-7.3 8v.1l-.9 1.8c0 .1 0 .1-.1.2-.3.6-.5 1.3-.8 2l-.1.3.9.2zm-73.6-14.8l.7.1c2.9.4 6.2.8 9.4 2.6 1.4.8 2.7 1.8 3.9 3.1.4.4.7.8 1.1 1.3l.1.1c.3.4.7.9 1 1.4 0 .1.1.1.1.2l.9 1.5c0 .1.1.1.1.2.3.5.5 1.1.8 1.6 0 .1.1.1.1.2.3.6.5 1.2.8 1.8l-.5.1h-.7-29.9c-6.8 0-8-1.2-8-1.2l-.1-.1h-.3l-.2-.2-.2-.2-.1-.1c-.1-.1-.2-.2-.2-.3l-.1-.1c-.1-.1-.2-.2-.2-.3l-.1-.1c-.1-.1-.1-.2-.2-.3 0-.1-.1-.1-.1-.2-.1-.1-.1-.2-.2-.4 0-.1-.1-.1-.1-.2-.1-.2-.1-.4-.2-.6-.4-1.6-.4-11.2-.3-13.1.1 0 .3 0 .5.1l4.1.5c5.4 1 14 2.1 18.1 2.6zM83 208.3h0 .3c.4.3 2.2 1.3 8.3 1.3H122l1.5 1.5h53.2l1.5-1.5h30.4c6.2 0 7.9-.9 8.3-1.3h.2 2.1c-1.9 1.3-5.2 3-9.7 3H89.8c-4.2 0-7.5-1.5-9.5-2.9v-.2l2.7.1zm134.6-1.3l-.2.2-.1.1-.2.2-.1.1-.2.2h-.3l-.1.1s-1.2 1.2-8 1.2h-30.5l-.6-.1c.3-.7.5-1.3.8-1.9 0-.1 0-.1.1-.2.3-.6.6-1.2.9-1.7 0-.1.1-.1.1-.2.3-.6.6-1.1.9-1.6 0 0 0-.1.1-.1.3-.5.7-1 1.1-1.5 1.1-1.4 2.4-2.6 3.7-3.6.5-.3.9-.6 1.4-.9h.1l.1-.1c3-1.6 6.2-2 9-2.3l.7-.1 11.3-1.4h0 .3l11.2-1.4v2.6 5.1c0 2.4-.1 4.7-.3 5.3-.1.2-.1.4-.2.6 0 .1-.1.1-.1.2-.1.1-.1.2-.2.3 0 .1-.1.1-.1.2-.1.1-.1.2-.2.3 0 .1-.1.1-.1.2-.1.1-.1.2-.2.2-.1-.1-.1-.1-.1 0zm-9.8-32.3h-.3 0c-4 .6-8.8 1-14.3 1.4l3.9-6.5c9-.8 17.1-1.9 21.7-3.5.1 0 .1 0 .2-.1.2-.1.4-.1.6-.2.1 0 .1-.1.2-.1l.6-.3h.1c0 1 .1 2 .1 3v.4 1.9.8c-.2.1-.5.2-.7.4h-.1c-.3.1-.7.3-1 .4-.1 0-.1 0-.2.1-.4.1-.7.3-1.1.4h-.1c-2.5.7-5.7 1.3-9.6 1.9zM79.7 198.1c0-.1 0-.1 0 0 0-.5-.1-1-.1-1.4v-.2c0-.5 0-.9-.1-1.4 0-.4 0-.9-.1-1.3v-.2-1.2-.2c0-.8-.1-1.6-.1-2.4v-.2-1-.2-1-3.7-.5-3.6-.1-3.7-.7-.9-1.1-.7-.3s.1 0 .2.1l.6.3c.1 0 .2.1.3.1l.9.3c.1 0 .1 0 .2.1.8.3 1.7.5 2.8.8h.2l1.4.3c.1 0 .3.1.4.1.4.1.9.2 1.4.3.2 0 .4.1.5.1.5.1.9.2 1.4.2.2 0 .4.1.6.1.5.1 1 .2 1.6.2.1 0 .2 0 .4.1v17.3l-11-1.4c-.2 0-.4-.1-.5-.1h-.1-.3v.3c0 .5-.1 11.8.4 13.6.1.3.2.5.3.8 0 .1.1.1.1.2.1.2.2.3.3.5 0 .1.1.1.1.2.1.2.2.3.3.4l.1.1c.1.2.3.3.4.4h-2l-.6-9.4zm19 46.5v15.5a1.54 1.54 0 0 1-1.5 1.5H81.8a1.54 1.54 0 0 1-1.5-1.5v-36c.8 3.5 1.8 6.9 2.4 8.4 0 .1.1.2.1.3 1 1.9 7 2.2 15.7 2.2v9.6zm101.6-.6h-101v-9.1h1.3 2.7c3.7 0 4.8-1.4 5.7-2.5.6-.8 1.1-1.4 2.3-1.4h77.4c1.2 0 1.7.6 2.3 1.4.9 1.1 2.1 2.5 5.7 2.5h2.8.7v9.1zm.1-9.7h-.8-2.8c-3.4 0-4.4-1.2-5.3-2.3-.7-.8-1.3-1.6-2.8-1.6h-77.4c-1.5 0-2.1.8-2.8 1.6-.9 1.1-1.9 2.3-5.3 2.3h-2.8c-2.6 0-5.9.1-8.9-.1h-.2-.6c-3.5-.2-6.7-.7-7.3-1.7 0-.1-.1-.2-.1-.3v-.1c0-.1-.1-.2-.1-.3v-.1c0-.1-.1-.2-.1-.3v-.1c-.3-.9-.7-2.1-1-3.4h136.2c-.5 1.8-.9 3.2-1.3 4.1-.1.2-.2.4-.2.5-.5 1-3.3 1.5-6.5 1.7h-.1-.5c-2.8.2-6 .2-8.6.1h-.7zm18.8 25.8a1.54 1.54 0 0 1-1.5 1.5h-15.4a1.54 1.54 0 0 1-1.5-1.5v-15.5-9.7c7.1.1 14.1-.1 15.9-1.7h.1a1.38 1.38 0 0 0 .3-.4c.1-.1.1-.3.2-.4v-.1c.5-1.2 1.2-3.5 1.8-6.1v33.9zm1.5-45.1c.1.9-.5 4.2-1.3 7.7l-.2.8c-.3 1.4-.7 2.8-1 4H81.8l-1.5-6.2-.2-.8c-.5-2.6-.9-4.7-.8-5.4 0-.4.1-.9.2-1.4 2.3 1.3 5.7 2.8 9.5 2.8h119.1c4.2 0 9.6-.8 12.5-1.9.1.1.1.3.1.4zm-.1-.7c-2.9 1-8.3 1.9-12.5 1.9H89c-3.8 0-7.2-1.5-9.4-2.8.3-2 .8-4.3.8-4.3h0 0v-.1c2.1 1.3 5.3 2.8 9.4 2.8h119.6c4.9 0 8.4-2 10.2-3.3h.1v.6h0 0c-.1-.1.6 3.1.9 5.2zm.1-25.9v.3.8.4.8.4.1.7.1.5.6.1.4.6.2 1 .4c0 .5 0 .9-.1 1.4v.2l-.3 4.7v.2.5c-.1 2.1-.3 3.9-.3 5.1h-2l.4-.4.1-.1c.1-.1.2-.3.3-.4s.1-.1.1-.2c.1-.1.2-.3.3-.5 0-.1.1-.1.1-.2.1-.2.2-.5.3-.8.5-1.8.4-13.1.4-13.6v-.3h-.3l-11.2 1.4-.1-17.3c2.9-.4 5.5-.9 7.6-1.4h.1c.8-.2 1.6-.4 2.3-.7.1 0 .1 0 .2-.1.3-.1.7-.2 1-.3.1 0 .1-.1.2-.1h.1c.2-.1.3-.1.5-.2.1 0 .1-.1.2-.1s.2-.1.2-.1v1.4.1.3c.1 3.6.1 6.7.1 9.2v4.2c-.2 0-.2.3-.2.7zm.3-24h0l-.8-17.1v-.7c0-.5-.1-1.1-.1-1.6 0-.3 0-.5-.1-.8-1-14.1-2.8-28.2-4-35.5h1.4v-1.5h12.7v7.5c-.3.1-.6.1-.9.2h-.1c-.1 0-.2.1-.3.1s-.2.1-.2.1c-.1 0-.1 0-.2.1-.1 0-.2.1-.3.1h-.1c-.1 0-.2.1-.3.1h-.1c-.1 0-.2.1-.2.1l-.1.1-.1.1-.2.2c-.5 1-1 5.3-1 12.5 0 1.9 0 3.7.1 5.4 0 .8.1 1.6.1 2.3 0 .4 0 .7.1 1.1.2 3.1.5 5.1.7 5.6 0 .1.1.1.1.2l.1.1s.1 0 .1.1c.1 0 .2.1.2.1h.1c.1.1.2.1.3.1h.1c.1 0 .2.1.3.1 0 0 .1 0 .1.1.1 0 .2.1.3.1s.2.1.3.1h.1c.3.1.6.2.9.2v7l-1.4 1.2c-1.5 1.3-3 2.5-3.7 3.2-1.9 1.7-2.2 3.4-2.2 6.9v5.2l-1.8-.5c0-.7 0-1.5-.1-2.3v-.2l.2-.1zm1.8 4.8h2.1.1v4.5h-2.2v-4.5zm-1.7 2.5v-.5h0v-1-2.1l1.2.3v.2 5.7.7l-1.1.4v-.4-.1-.7-1.1-.3-.4-.5h0l-.1-.2zm9 25.1H221c0-.5.1-1 .1-1.5.1-1 .1-2 .1-2.9v-.2-1.1-.3-.3-.5-.2-.3-.3-.3-.4-.2-.2-.7-4.2-5.2-.2-1.8-.1l1.6-.6v-1.1h2.8v-5.7h-.7v-5.9c0-3 .2-4.1 1.5-5.3l3.6-3.1h.1v42.6zm5.4-50.7s0 2.6-1.4 3.9c-.7.7-2.5 2.1-4.2 3.6l-.2.2c-1.5 1.2-3 2.5-3.7 3.1-1.4 1.3-1.7 2.6-1.7 5.7v5.9h-1v-5.9c0-3.2.3-4.9 2-6.4.7-.7 2.2-1.9 3.7-3.2l.3-.3c1.6-1.3 3.3-2.8 4-3.4 1.1-1.1 1.1-3.2 1.1-3.3v-1.2h.1.4.5v1.3zm-4.8 4.8v-6.4c1 .2 2.2.4 3.2.4v1.2c0 .5-.2 2.1-1 2.8-.3.4-1.2 1.2-2.2 2zm5.4-36.1h0c3.1.2 6.1 1.1 6.3 1.6.4.7.9 4.7.9 12.3 0 7.9-.6 13.5-.9 14.1-.2.5-3.2 1.4-6.4 1.6h-.2-1.5-.1c-1.2-.1-2.4-.2-3.4-.4h0l-.2-.1c-.2 0-.4-.1-.6-.1-.1 0-.1 0-.2-.1-.1 0-.2-.1-.3-.1s-.2-.1-.3-.1-.2-.1-.3-.1h-.1c-.7-.3-1.1-.5-1.2-.6-.3-.6-.9-6.2-.9-14.1 0-1.9 0-3.6.1-5 .2-4.3.6-6.7.8-7.3.1-.1.4-.4 1.2-.6h.1c.1 0 .2-.1.3-.1s.2-.1.3-.1.2 0 .3-.1c.1 0 .2 0 .3-.1.2 0 .3-.1.5-.1h.2c1-.2 2.2-.4 3.4-.4h.2 1.5l.2-.1zm-5.4-.2v-7.4h1.2c.3 0 2 .3 2 2v5c-1 .1-2.1.2-3.2.4zm1.3-8.9c1.2.1 3.5 1 3.5 3.5v5h-.5-.4v-5c0-1.7-1.4-2.4-2.6-2.5h-1.2-13.9v1.5h-.9v-.3-2.2h16zM70.3 38.9h159.6v66.2h-14.6c-.1-.3-.1-.5-.2-.7 0-.1-.4-6.9-10.5-8-10-1.1-31.7-1.1-54.7-1.1s-44.7 0-54.7 1.1c-10.1 1.1-10.5 7.9-10.5 7.9-.1.2-.1.5-.2.8H70.1V38.9zm-5.8 70.3c0-2.6 2.3-3.4 3.5-3.5h16.2v2.3.2h-.9v-1.5h-14 0H68c-1.2.1-2.6.9-2.6 2.5v5h-.1-.4-.5v-5zm4.8-2v7.4c-1-.2-2.2-.4-3.2-.4v-5c0-1.7 1.7-1.9 2-2h1.2zm-11.7 9.2c.2-.5 3.2-1.4 6.3-1.6h0 .3 1.5.2c1.4.1 2.7.3 3.9.5.1 0 .2 0 .2.1.2 0 .3.1.4.1.4.1.8.2 1.1.3.1 0 .1 0 .2.1.3.1.6.3.7.4l.1.1c.4.7.9 4.7.9 12.3 0 7.9-.6 13.5-.9 14.1 0 0 0 .1-.1.1-.1.1-.3.2-.7.4 0 0-.1 0-.1.1-.3.1-.7.2-1.1.3-.1 0-.3.1-.4.1s-.2.1-.4.1h-.2-.1c-1 .2-2.2.4-3.5.5h-.2-1.5-.2c-3.1-.2-6.1-1.1-6.4-1.6-.3-.6-.9-6.2-.9-14.1 0-7.6.6-11.6.9-12.3zm7.2 22.2c.7 0 1.5-.7 1.6-1.2s.2-3.8.2-8.1l-.2-7c-.1-.6-.9-1.2-1.6-1.2s-1.5.7-1.6 1.2-.2 2.7-.2 7l.2 8.1c.1.5.9 1.2 1.6 1.2zm-1-16.3c0-.3.6-.7 1-.7s1 .5 1 .7c.1.4.2 2.7.2 6.9l-.2 8c0 .3-.6.7-1 .7s-1-.5-1-.7c-.1-.4-.2-3.5-.2-8l.2-6.9z"/></svg>