<svg xmlns="http://www.w3.org/2000/svg" baseProfile="tiny" viewBox="0 0 300 300" overflow="visible" xmlns:v="https://vecta.io/nano"><path fill="#221f1f" d="M217.4 45.4c-1.8-4.2-8.3-5.5-14.5-2.9-4.4 1.8-7.6 5.2-8.3 8.6l-4.1 3.7-.1.1c-.1.1-9.1 14.1-11.7 17.5-1.6 2.2-2.7 3.4-3.2 4h-.3l-6.9-1.5c-.6-1.3-4.7-9.3-18.3-9.3-13.7 0-17.8 8-18.3 9.3-.7.2-3.6.8-6.9 1.5h-.1c-.5-.6-1.6-1.8-3.2-3.9-2.6-3.4-11.6-17.3-11.7-17.5l-4.1-3.7c-.8-3.4-4-6.8-8.3-8.6-3-1.3-6.1-1.7-8.9-1.1-2.8.5-4.8 2-5.7 4.1s-.5 4.5 1.1 6.9c1.5 2.3 4 4.3 7 5.6 2.2.9 4.4 1.3 6.4 1.3 2.9 0 5.4-.9 7-2.6l3.4 1.1c.8 1.4 8.9 14.7 9.5 16.7.3 1.1.7 2.3.9 3.2-4.3 1-4.4 1.1-4.5 1.2s-.2.7-.3 1.6l-1.4.1.2 2.3-16.2.9-.1-1-1.7.1.2 2.8c-.8.2-1.4.9-1.4 1.7 0 .9.7 1.6 1.6 1.7l.1 1.8 1.7-.1-.1-1 15.9-1.1.1 1.7h.5c.1.4.2.7.4.8.5.4 2.9.9 8.3 1.8 4.1.7 8.7 1.5 9.7 2.1.4.2 1 .6 1.6 1.2 1.3 1.1 2.8 2.6 3.8 3.7-10 1.7-14.4 5.2-16.7 7.1-.4.3-.7.6-1.1.9-.1.1-2.4 2.3-3.7 6.7-.9 3-3.2 14.6-4.6 21.3-1.1.7-5.1 3.6-4.9 6.2.1 2.3 5.6 22.2 7.4 28.5-.3 1-.3 2-.1 3.2.3 2.1.7 4.2 1.8 6.1l.6 24.9c-.3 13 .7 19.6 3.2 20.7 2.8 1.2 15 2.9 19.2 3.4v25.5c0 .8.6 1.6 1.3 1.8l4.8 1.8c.6.2 1.6.4 2.3.4h7.5c.6 0 1.7-.2 2.3-.4l5.3-1.9c.7-.3 1.3-1.1 1.3-1.8V229c4.8-.6 15.6-2.1 18.3-3.3 3.3-1.5 3.4-12.5 3.2-20.7-.1-4.5.4-20.3.6-25.2.9-1.8 1.3-3.9 1.6-5.8.3-1.8-.1-3.1-.4-4 2-7.1 7-25.4 7.1-27.6s-2.8-4.7-4.3-5.8h0 0l-4.6-21.8c-1.3-4.4-3.6-6.6-3.7-6.7-.3-.2-.7-.5-1.1-.8-2.3-1.8-6.5-5.2-15.9-7 1.6-1.8 4.2-4.3 5.5-5 1-.5 5.7-1.3 9.7-2.1 5.4-1 7.9-1.4 8.3-1.8.1-.1.2-.3.3-.8h.3l.1-1.7 15.9 1.1-.1 1 1.7.1.1-1.8c.9-.1 1.6-.8 1.6-1.7 0-.8-.6-1.5-1.4-1.7l.2-2.8-1.7-.1h0 0v.4.6l-15.9-1.1.2-2.3-1.3-.1c-.2-1.4-.3-1.5-.3-1.6-.1-.1-.2-.3-4.4-1.2.2-1 .5-2.2.9-3.3.6-2 8.7-15.4 9.5-16.7l3.4-1.1c1.6 1.7 4.1 2.6 7 2.6 2.1 0 4.3-.4 6.4-1.3 6.3-2.7 9.9-8.3 8.2-12.5zM182 79.6v-.3-.2c.5.3.7.6.7.7-.2.1-.9.2-2 0h.1.3.3.1.1.1l.3-.2zm-6.2-1.6c.1 0 .1.1.2.1s.1.1.2.1c.2.1.3.2.5.3.1 0 .2.1.2.1.1 0 .1.1.2.1-1.9-.7-2.9-1.5-3-1.7 0 0 .2-.1.6-.1l-.2.2.3.2c.4.3.7.5 1 .7zm-25.9-11.8c13.3 0 17.2 7.8 17.7 8.9-.1.1-.2.4-.3.6 0 .1-.1.2-.2.3v.1c-.1.1-.1.2-.2.3 0 0 0 .1-.1.1-.1.1-.1.2-.2.3l-.1.1c-.1.1-.1.2-.2.3 0 .1-.1.1-.1.2-.1.1-.1.2-.2.3 0 .1-.1.1-.1.2-.1.1-.2.2-.2.3s-.1.1-.1.2c-.1.1-.2.2-.2.4 0 .1-.1.1-.1.2a1.38 1.38 0 0 0-.3.4l-.2.2c-.1.1-.2.3-.3.4l-.2.2-1.1 1.4c-.1.1-.1.2-.2.3l-.3.3-.3.3-.3.3-.3.3-.3.3-.3.3-.3.3-.3.3-.3.3a1.38 1.38 0 0 1-.4.3l-.3.3c-.1.1-.2.2-.4.3-.1.1-.2.2-.4.3-.1.1-.3.2-.4.3s-.2.2-.4.2c-.1.1-.3.2-.4.3s-.2.1-.4.2a.76.76 0 0 1-.4.2c-.1.1-.3.1-.4.2s-.3.1-.4.2-.3.1-.4.2c-.2.1-.3.1-.5.2-.1.1-.3.1-.4.2-.2.1-.3.1-.5.2-.1 0-.3.1-.4.1-.2.1-.3.1-.5.1-.1 0-.3.1-.4.1-.2 0-.4.1-.6.1-.1 0-.3 0-.4.1-.2 0-.4.1-.6.1h-.3-1-1-.3c-.2 0-.4 0-.6-.1-.1 0-.3 0-.4-.1-.2 0-.4-.1-.6-.1-.1 0-.3-.1-.4-.1-.2 0-.4-.1-.5-.1s-.3-.1-.4-.1c-.2-.1-.3-.1-.5-.2a.76.76 0 0 1-.4-.2c-.2-.1-.3-.1-.5-.2-.1-.1-.3-.1-.4-.2-.2-.1-.3-.1-.5-.2-.1-.1-.2-.1-.4-.2a.76.76 0 0 0-.4-.2c-.1-.1-.2-.1-.4-.2-.1-.1-.3-.2-.4-.3s-.2-.2-.4-.2c-.1-.1-.3-.2-.4-.3s-.2-.2-.3-.2c-.1-.1-.3-.2-.4-.3l-.3-.3c-.1-.1-.3-.2-.4-.3l-.3-.3c-.1-.1-.2-.2-.4-.3l-.3-.3c-.1-.1-.2-.2-.4-.3l-.3-.3-.3-.3-.3-.3a1.38 1.38 0 0 1-.3-.4c-.1-.1-.2-.2-.2-.3-.1-.1-.2-.3-.3-.4-.1-.2-.3-.3-.4-.5a1.38 1.38 0 0 1-.3-.4 1.38 1.38 0 0 1-.3-.4c-.1-.1-.1-.2-.2-.3s-.2-.2-.3-.4c-.1-.1-.1-.2-.2-.2a1.38 1.38 0 0 1-.3-.4l-.2-.2c-.1-.1-.2-.2-.2-.4 0-.1-.1-.1-.1-.2-.1-.1-.2-.2-.2-.3s-.1-.1-.1-.2c-.1-.1-.2-.2-.2-.3l-.1-.1c-.1-.1-.1-.2-.2-.3 0 0 0-.1-.1-.1-.1-.1-.1-.2-.2-.3v-.1c-.1-.1-.1-.2-.2-.3-.3-.5-.4-.8-.5-1 .4-1.2 4.3-8.9 17.6-8.9zm-30.6 13.6c-1.2.2-1.9.1-2 0 0-.1.2-.3.7-.7v.1l-.1.4.3.1h.1.1.1.2.1.3c.1.1.1.1.2.1-.1 0-.1 0 0 0zm3.7-1.1c.1 0 .1-.1.2-.1s.2-.1.2-.1c.2-.1.3-.2.5-.3.1 0 .1-.1.2-.1s.1-.1.2-.1l.9-.6.3-.3-.2-.2c.4 0 .5.1.6.1-.1.3-1.1 1-2.9 1.7-.1 0 0 0 0 0zM91 57.2c-2.9-1.2-5.2-3.1-6.7-5.3-1.4-2.2-1.8-4.4-1-6.2s2.6-3.1 5.1-3.6c.7-.1 1.5-.2 2.3-.2 2 0 4.1.4 6.2 1.3 4.1 1.7 7.2 4.9 7.9 8h0l.1.3v.3.3h0c.1.7 0 1.4-.2 2.1h0c-.1.2-.1.3-.2.5-.1.1-.1.3-.2.4 0 .1-.1.2-.2.3s-.1.2-.2.3l-.1.1-.1.1c0 .1-.1.1-.1.2h0c-2.2 2.7-7.6 3.2-12.6 1.1zm17 .1l-.1-.1-3.3-1.1c.1-.1.1-.2.2-.4.1-.1.1-.2.2-.3s.1-.3.2-.4c.1-.2.1-.4.2-.6.1-.3.2-.7.2-1v-.1-.6-.1-.3-.1l3.4 3.1c.5.8 9.2 14.1 11.7 17.5 1.3 1.7 2.3 2.9 2.9 3.5h0l.2.2h0l.6.6a15.07 15.07 0 0 1-2 1.2c-1.7.8-2.9.9-3.5.8h-.2v-.6l-.1-.5h0l-.1-.4h0c-.2-1-.5-2.1-.9-3.3-.6-2.2-9.2-16.4-9.6-17zm96.5 27.5l.1-.9h.3l-.1 2.2h-.1c-.1 0-.1 0-.2.1v-1.4h0zm-16.8 1.6h0l15.7 1.1v.2.3l-15.8-.6h0-.4 0V87v-.4-.2h0 .5zm-1.2.7v.3.2.7.1.5.1.1l-.1 1c-.1.6-.2.7-.2.7-.4.3-4.6 1.1-8 1.7-4.3.8-8.8 1.5-9.9 2.1-.3.2-.8.5-1.2.9-1.7-.7-4.1-.3-5.6 0h-.2c-1.9.3-6.2.6-11.4.6-5.5 0-8.1 0-12.3-.5-.6-.1-1.1-.1-1.6-.1-1.2 0-2.1.2-2.8.4-.7-.6-1.3-1-1.7-1.3-1.1-.6-5.6-1.4-9.9-2.1-3.4-.6-7.6-1.3-8-1.6 0 0-.1-.1-.2-.7v-.1-.3-.1-.2-1.2-.8h0V87c1 .2 2 .5 3.2.7 7.6 1.8 18.1 4.3 33.4 4.3s25.8-2.5 33.4-4.3a15.47 15.47 0 0 0 3.1-.6zm-90.2.9v-.3-.2l6.2-.4 9.5-.6h0 .3.3v.3h0v.1h0v.1h0 0v.1.4h-.2l-6.7.3-9.4.2zm16.1-6.7h.3l.1 1.9v.2c0 .3 0 .6-.1.9v.2.8.1.2l-.2-2.7h0l-.1-1.6zm-.6 2.4l.1 1.3v.7l-14.2 1-1.7.1-.1-2 15.9-1.1zm-16.7.1v.3h0l.1 1.7v.3h-.1-.1-.1l-.1-2.2.3-.1zm-1.5 3.9a.94.94 0 0 1 1-1c.2 0 .4.1.5.2s.2.1.2.2h0c0 .1.1.1.1.2h0c.1.1.1.3.1.4s0 .2-.1.3h-.1v.2c0 .1-.1.1-.2.2s-.3.2-.5.2h0-.1c-.4.1-.9-.3-.9-.9zm2 2.7h-.3l-.1-1.2h.1.1s.1 0 .1-.1v.1l.1.9h0v.3zm.6-1v-.7l10.6-.4 5.3-.2v.2l-15.9 1.1zm47.9 10.5h.3c.7 0 1.5-.1 2.2-.1h.4 2.3.4v12.3c-4.2 0-15.8-1.5-15.9-1.5l-.4-.1v.4c.2 7.2.9 14 .9 14v.1c1.1 2.1 10 7.5 15.2 7.5h.2v16.6h-.7-1.5-.2-.7-.2c-1.1 0-2.4 0-3.8-.1h-.1c-.7 0-1.4-.1-2.2-.1l-3.6-.3h-.1c-.4 0-.8-.1-1.2-.1s-.9-.1-1.3-.1h-.1c-.4-.1-.9-.1-1.3-.2h-.1c-.4-.1-.8-.1-1.2-.2h-.1c-.4-.1-.8-.1-1.3-.2h-.1c-.4-.1-.7-.1-1.1-.2l.5-4.7-.3-.1c-5-.9-9.7-2.2-13.9-3.9l3.2-28.9v-.4c.5-.6.8-.9.8-.9.3-.2.7-.5 1.1-.9 2.4-1.9 6.8-5.4 17-7.1l.7-.1-.1-.2c1.9-.1 4-.3 6.3-.5zm3.4-.4h-.4c-.5 0-1 0-1.6.1h-.2c1.7-.8 3.4-1.3 4.5-1.3h.1c2.2.2 4.1.7 5.5 1.4-1.7-.1-3.4-.2-5.2-.2h0-.2-.6c-.6-.1-1.3-.1-1.9 0zm2.2 32.5c-5.1 0-13.5-5.3-14.5-7.1-.1-.7-.7-6.9-.9-13.5 2.2.3 12.1 1.4 15.8 1.4 3.5 0 12.9-1.2 15-1.4-.2 6.6-.8 12.8-.9 13.5-1 1.8-9.4 7.1-14.5 7.1zm37.1 19.7c-.1.3-.1.5-.2.8v.1c0 .1-.1.3-.1.4l-2.3 10.6.7-19.6c1.4-.7 2.8-1.4 4-2.2l-2.1 9.9zm-3.6-36.6c1 3.3 3.8 17.6 4.7 21.9v.1c-1.1.7-2.3 1.3-3.5 1.9l-3.6-28.8c.7.9 1.7 2.6 2.4 4.9zm4.8 22.7c.3 1.5.5 2.7.7 3.4-4.3 2.9-10.3 5-17.7 6.3l-.4-3.8c7.1-1.3 13-3.3 17.4-5.9zm-17.7 10.5l.4-.1c5.4-.9 10-2.3 13.9-4l-.8 21.2c-.1.4-.1.8-.1 1.2-1.5.4-5.1 2.2-8.5 4.4-1-2.4-2.5-4.9-4.7-7.1-4.6-4.6-11.4-7.1-20.2-7.2v-7.1h0c6.1 0 13.2-.4 20-1.5v.2zm7.9 36.2l.8.7c-.3 1.2-1.7 7.8-3.3 14.6v-9.5l.8-3-.4-6.2c0-.4-.3-.8-1.4-1.2v-7.1c2.5 5.9 1.8 11.6 1.8 11.6l-.1.5.5-.1c.4-.1.9-.2 1.3-.3zm-12 37.4v2h-3.8v-9.7h3.8v2.2 4.8.7zm-4.3-38.1h2.4.1c.1 0 .3.1.4.1s.2.1.3.1.1.1.2.1a1.38 1.38 0 0 0 .4.3c.7.6 1.4 1.6 2.1 2.9h0l.1.3c0 .1.1.2.1.3.1.3.3 1 .4 1.6v.2.3l-.2 21.6v3.5l.2 1.1H167v-3h-4.5V185c-.1-.4-.3-.8-.6-1.2zm-24.3 29.6h-4.2v3H132l.2-1-.1-7-.1-18.2v-.3-.2c.1-.5.3-1.1.4-1.7v-.1l-.2-.1h0 .2v-.1c.1-.2.1-.3.1-.3v-.1-.3c.9-1.7 1.8-2.7 2.7-3.1.1 0 .1 0 .2-.1.1 0 .1 0 .2-.1h2.4c-.3.3-.5.8-.5 1.2v28.5zm0 10.5h-3.5v-2-.7-4.1-.7-2.2h3.5v9.7zm-16.8-39.4l1.2.3.5.1-.1-.5c0-.1-.9-7.6 3.2-14.2l-.1 9.7c-1.2.3-1.4.8-1.4 1.2l-.4 6.3.7 2.7.1.3-.1 14.3a640.18 640.18 0 0 1-4.4-19.3l.8-.9zm9.5-36.3c.2 0 .5.1.7.1s.5.1.7.1.5.1.7.1.5.1.7.1.5.1.7.1.4.1.7.1c.2 0 .5.1.7.1s.4 0 .6.1c.2 0 .4 0 .6.1.2 0 .4 0 .6.1.2 0 .4 0 .6.1.2 0 .4 0 .6.1.2 0 .4 0 .6.1h.6.6.6.6.6.6.5.5.5.6.5.6.4.7.2.4 1 .8.8 0v7.1h-.4c-11 0-18.9 3.4-23.5 10.2-.7 1-1.3 2.1-1.8 3.2-3-1.4-6.7-2.9-8.8-3.7l-.7-22.3c4.2 1.7 8.9 3.1 13.9 4l.4.1v-.2c.2 0 .4.1.6.1.2.1.4.2.7.2zm45.1 32.9l.3 5.8c-.6-.6-2.2-.9-3.7-.9h-.8c-.2-1.5-.6-3.5-.9-5.7h.1.3.3.2.2 1 .4.3.1.3.2.2.2l.3.1c.8.3 1 .6 1 .7zm-6.2 40.8l.1-3.7v-.2c.7-.2 1.6-.4 2.7-.4a11.25 11.25 0 0 1 2.9.4l-.1.5v4.5s-.1 0-.1-.1c-.1 0-.2-.1-.3-.1s-.2-.1-.3-.1-.2 0-.3-.1c-.1 0-.3-.1-.4-.1h-.1c-.8-.1-1.7-.1-2.5 0-.2 0-.3 0-.4.1-.1 0-.2 0-.3.1-.1 0-.2 0-.3.1-.1 0-.2.1-.3.1 0 0-.1 0-.1.1l-.2-1.1h0zm5.9-6.8v.4l-.2 2.2c-.7-.3-1.8-.4-2.9-.4-1 0-2 .1-2.7.4l-.4-2.3v-.2c.7-.3 1.8-.5 3.1-.5 1.2-.1 2.4.1 3.1.4zm-35.8-32h0-.5c-.3-3.3-1.2-10.7-4.2-15.9 3.2-2.4 11.9-3.9 15.4-3.9 3.3 0 11.4 1.3 14.9 3.5-3.1 5.2-4.1 12.9-4.4 16.3h-15.1-6.1zm-4.1.2c-.1 0-.1.1-.2.1s-.2.1-.3.1-.1.1-.1.1c-.1.1-.2.1-.3.2l-.1.1c-.2.2-.4.3-.6.5l-.3.3c0 .1-.1.1-.1.2-.1.1-.2.3-.3.4 0 .1-.1.1-.1.2-.1.1-.1.2-.2.3v-.1l-.6 1.2c0 .1-.1.1-.1.2v.1c-.4.8-.7 1.6-1 2.3v.1c-.1.4-.3.8-.4 1.1l-1-2.1c.1-.6.5-3.6 1.1-7.1 0-.1 0-.2.1-.3v-.1c0-.2.1-.4.1-.5h0v-.2-.2-.1l.3-1.9h0 0c1.1-5.6 1.9-8.3 2.4-9.5 0-.1.1-.2.1-.2v-.1c.1-.1.1-.2.2-.3s.2-.3.3-.4c2.8 5 3.7 12.2 4 15.5h-1.5-.9c-.1 0-.2 0-.2.1-.2-.1-.3-.1-.3 0zm34.1-7.8v-.1c-.8-4.1-1.6-6.7-2.3-7.7-.1-.2-.3-.4-.5-.6s-.4-.3-.6-.5c-.1 0-.1-.1-.2-.1l-.3-.2h0c-3.9-2.5-12.6-3.6-15.3-3.6-2.8 0-12.1 1.2-15.8 4h0l-.3.3-.2.2-.2.2c-.2.2-.3.4-.5.6-.1.1-.2.3-.3.5 0 .1-.1.1-.1.2l-.3.6c0 .1-.1.2-.1.2-.1.2-.1.4-.2.7 0 .1-.1.2-.1.3l-.3.9c0 .1-.1.2-.1.3l-.3 1.2c0 .1 0 .1-.1.2-.2.7-.3 1.5-.5 2.3l-.3-9.7v-.2l-.2-.1c2.7-2.1 6.1-3.5 10.1-4.3.1 0 .2-.1.4-.1.4-.1.7-.1 1.1-.2.2 0 .4-.1.6-.1.3 0 .7-.1 1-.1s.6-.1.8-.1c.3 0 .6-.1 1-.1.3 0 .7 0 1-.1h.9 1.6.4.4 1.6.9c.4 0 .7 0 1 .1.3 0 .6.1 1 .1.3 0 .6.1.8.1.4 0 .7.1 1 .1.2 0 .4.1.6.1.4.1.8.1 1.1.2.1 0 .2 0 .3.1 4.6.9 8.4 2.7 11.3 5.3l-.3 9.9c.5-.6.5-.7.5-.8zm-44.7 12v-.1c0-.4 1.4-1 3.7-1h.6c-.2 1.3-.3 2.2-.3 2.2v.1l.2.3h-.4c-1.3 0-2.4.2-3.2.5l-.6-2zm1.8-18.5l.9-1.2.5-.5a1.38 1.38 0 0 0 .3-.4l.6-.6.3-.3c.2-.2.4-.4.7-.6.1 0 .1-.1.2-.1h.1l.4 12.6-.3 1.6h-.2-.3-.3-.2-1.1-.4-.4-.3c-.2 0-.3 0-.5.1V169zm-.4 11.5c.3-.1.5-.1.8-.2h.3.3.4 1.1.1.2.1.3.2c-.3 1.6-.5 3.2-.8 4.5v.1c-.1.4-.1.8-.2 1.1h-.7c-1.5 0-3.1.3-3.7.9l.3-5.9c.2 0 .4-.3 1.3-.5zm-.8 9.4c.7-.3 1.8-.5 3.1-.5h.6l1.6 3.2h0 0l.2-.9c0-.1.1-.2.1-.4.1-.2.2-.6.3-1l.1 18.1v6.3c-.7-.3-1.9-.5-3.1-.5s-2.4.2-3.1.5v-7.5h0l.1-17.1.1-.2zm0 25.6v-.4c.7-.3 1.8-.5 3.1-.5s2.4.2 3.1.5h0v.2l-.3 1.8h0l-.1.5c-.7-.2-1.7-.4-2.7-.4a11.25 11.25 0 0 0-2.9.4l-.2-2.1zm5.7 7.5c-.1 0-.2-.1-.3-.1s-.2-.1-.3-.1-.2 0-.2-.1c-.5-.1-1.2-.2-1.8-.2-.4 0-.9 0-1.3.1-.2 0-.3.1-.5.1-.1 0-.2 0-.2.1-.1 0-.2.1-.3.1s-.2.1-.3.1c0 0-.1 0-.1.1v-4.5l-.1-.5c.7-.3 1.7-.4 2.9-.4 1 0 2 .1 2.7.4v.2l.1 3.7h0v1.1c-.2-.1-.2-.1-.3-.1zm33.5-39.9h-3.1c.3-3.4 1.3-10.8 4.2-15.9l.2.2.2.2c.2.2.3.3.4.5s.2.4.4.7c.1.1.1.2.2.4v.1c0 .1.1.2.1.4 0 .1 0 .1.1.2 0 .1.1.2.1.3s0 .1.1.2c0 .1.1.2.1.3s.1.2.1.3.1.2.1.4c0 .1.1.2.1.3s.1.3.1.4 0 .2.1.3c0 .2.1.3.1.5v.2c.1.2.1.4.2.7v.1c1 4.2 1.8 9.6 2.3 12.6.2 1.1.3 1.9.3 2.2l-1 2.1c-.2-.6-.5-1.3-.8-2.2 0-.1 0-.1-.1-.2-.1-.3-.2-.5-.3-.8 0-.1-.1-.1-.1-.2l-.1-.2v-.1c-1.1-2.3-2.4-3.6-3.7-4h-.3zm7.1 5.6v-.1c0-.1-.1-1-.3-2.2h.8c2.3 0 3.7.6 3.7 1v.1l-.5 2.1c-.7-.3-1.9-.5-3.2-.5h-.6l.1-.4zm2.4-9c-.2 0-.2 0-.3-.1h-.1-.3-.4-.4-1.2-.1-.3-.1-.3-.3-.1c0-.3-.1-.5-.1-.8l.4-12.4.1.1.8.8.2.2c.1.2.3.3.4.5.2.3.4.5.6.8.1.2.3.4.4.6.2.2.3.5.5.8l.3.6c.1.2.2.3.3.5v8.4zm-17.2-20.1h-.1c-.4-.1-.9-.1-1.3-.2-.2 0-.4-.1-.7-.1-.4 0-.7-.1-1.1-.1-.3 0-.7 0-1-.1h-.9-1.3v-1.6c8.6.1 15.2 2.5 19.7 7 1.3 1.3 2.3 2.6 3.1 4-3-4.1-8-7.6-16.4-8.9zm-6.8-.5s-.1 0 0 0h-.4-.4-1.7-.9c-.3 0-.7 0-1 .1-.4 0-.7.1-1.1.1-.2 0-.5.1-.7.1-.4.1-.9.1-1.3.2h-.2c-8.3 1.3-13.4 4.8-16.3 8.9.2-.4.5-.8.7-1.1 4.5-6.6 12.2-9.9 22.9-9.9h.4v1.6zm-21.6-11.8c-6.8-1.3-12.8-3.3-18.1-6 .1-.6.4-1.8.7-3.5 5.2 2.6 11.2 4.5 17.8 5.7l-.4 3.8zM110.9 137v-.3s.1 0 .1-.1l.1-.1v-.1c1.3-6.7 3.7-18.4 4.6-21.4.6-2.1 1.5-3.7 2.2-4.8l-3.1 28.5c-1.3-.4-2.6-1-3.9-1.7zm-.9 5c1.4.7 2.8 1.4 4.3 2l.7 20.9c-.5-2-1.6-7.1-2.6-11.9l-2.4-11zm5.2 24.7c2.1.8 5.8 2.3 8.8 3.7-2 4.5-2.4 9-2.4 11.6h0c0 .8 0 1.5.1 1.9-.4-.1-.8-.2-1.1-.3h0c-.2 0-.3-.1-.5-.2-.2 0-.3-.1-.4-.1-.2-.1-.4-.2-.6-.2-.1 0-.2-.1-.3-.1l-.6-.3c-.1 0-.1-.1-.2-.1-.2-.1-.4-.2-.6-.4l-.1-.1c-.2-.1-.4-.3-.6-.4-.2-.2-.4-.3-.5-.5-.4-.4-.7-.8-.9-1.3h0c-1-1.8-1.4-3.9-1.7-5.9-.2-1.1-.1-2 .1-3v-.1-.1c0-.1 0-.1-.1-.2.2-.6.5-1.1.7-1.6.4-.7.8-1.5.9-2.3zm13.1 56.6h.6.3.3c.1 0 .2 0 .3.1h.1c.7.2 1.1.4 1.1.5-.1.2-1 .6-2.8.6s-2.8-.5-2.8-.6c.1-.1 1.1-.6 2.9-.6zm3.4-2.4h0v-1.2-1.3l.2-.9.1-.3h1.5v4.1h-1.7l-.1-.4zm35.2-3.8h1.5l.2 1.1-.1 2.7v.2h-1.7v-4zm2.3 6.8l.1-.1h.1s.1 0 .1-.1c0 0 .1 0 .1-.1h.1c.1 0 .1 0 .2-.1h.2c.1 0 .1 0 .2-.1h.2.3.2.3.6.6.3.3c.1 0 .3 0 .4.1h.1c.7.2 1.1.4 1.1.5-.1.2-1 .6-2.8.6s-2.7-.5-2.7-.7zm5.9-9.1c-.7-.3-1.9-.5-3.1-.5s-2.4.2-3.1.5v-3l.2-21c0 .1.1.2.1.3v.2.1c.1.2.1.3.1.3l.2.9h0 0l1.6-3.2h.8c1.2 0 2.4.2 3.1.5l-.1.3.1 12.5.1 12.1zm-68.8-72.4c-.1-1.7 2.2-3.8 4-5.2h0l-.8 4.2-.1.3.2.1c.1.3.3 1.2.5 2.6l4.6 21.2c0 .2.1.3.1.5v.4h0c0 .9-.4 1.6-.8 2.4l-.6 1.2c-2.1-7.5-7-25.6-7.1-27.7zm12.4 82.8c-1.5-.7-3.2-4.7-2.8-20.1.1-4.2-.4-18.7-.6-23.8l.9.9h.1c.6.6 1.4 1.1 2.3 1.5.4.2.8.3 1.2.5 0 0 .1 0 .1.1l-.7.7v.2c0 .1 2.8 13 5.2 22.1v7.8l.3 3.5v5.3c0 .9 1.8 1.4 3.5 1.4s3.5-.4 3.5-1.4h0l-.1-1.9h1.6v2.7h4.2v4c-4-.7-16-2.3-18.7-3.5zm43 29.6c0 .5-.4 1-.8 1.2l-5.3 1.9a7.12 7.12 0 0 1-2.1.4H146c-.6 0-1.5-.2-2-.4l-4.8-1.8c-.4-.2-.8-.7-.8-1.2v-25.4-4.8-.7-10.4V185c0-.5.4-1 .8-1.1l.2-.1h21l.5.1c.4.1.8.6.8 1.1v28.4 10.4.7 4.7 25.6zm21.4-49.7c.4 15.4-1.3 19.4-2.8 20.1-2.6 1.1-13.9 2.7-18 3.2v-3.8h4.5v-2.7h1.6l-.1 1.9h0c0 .9 1.8 1.4 3.5 1.4s3.5-.4 3.5-1.4v-5.3l.3-3.1-.1-12.7c2.1-8.3 4-17.5 4-17.6v-.2l-.8-.7h.1c1-.3 1.8-.7 2.6-1.2l.1-.1c.8-.5 1.4-1.2 2-1.9 0 6-.5 20-.4 24.1zm9-62.7c-.1 2.1-5 20.2-7.1 27.6v.1.1c.4.8.7 2 .4 3.8s-.6 3.7-1.4 5.3l-.2.3c-.7 1.3-1.6 2.2-2.8 3-.6.4-1.3.7-2.1.9-.1 0-.3.1-.4.1h-.1c-.4.1-.7.2-1.2.3 0-.4.1-1.1.1-1.9h0c0-2.6-.3-6.6-2-10.8 3.9-2.4 7.1-4 8.5-4.3v.1-.2h.1.2v-.2c-.1-.4 0-.8.1-1.2h0c.6-2.6 4.1-18.8 4.9-22.9.1-.3.1-.5.1-.7s.1-.2.1-.3h0v-.1l.2-.1v-.2c-.1-.6-.4-1.8-.7-3.5 1.2 1.2 3.4 3.2 3.3 4.8zm-29.9-42l-.4.5.6.1c9.7 1.7 13.9 5.1 16.2 6.9.4.3.8.6 1.1.8 0 0 .3.3.7.8l3.6 29.6c-3.8 1.7-8.5 3-13.9 3.9l-.3.1.5 4.7c-6.8 1.1-13.9 1.5-20 1.5v-16.6c5.3-.3 13.6-5.4 14.7-7.5v-.1c0-.1.7-6.9.9-14v-.4l-.4.1c-.1 0-11.3 1.4-15.2 1.5V99.8c2.1 0 4.1.1 5.9.2l.7.1-.6-.4c-1.6-1-3.7-1.6-6.4-1.9h-.1c-1.3 0-3.4.7-5.4 1.7-2.5.1-4.8.4-6.9.7h0c-.9-.9-2.5-2.6-4-3.9.9-.3 2.2-.5 4-.2 4.2.5 6.8.5 12.3.5 5.3 0 9.6-.3 11.5-.6h.2c1.4-.2 3.7-.6 5.2-.1-1.4 1.2-3.3 3.2-4.5 4.5zm25.4-12.1v-.2l15.9.6v.7l-15.9-1.1zm16.8 2.2h-.3l.1-1h0v-.3s.1 0 .1.1c.1 0 .1.1.2.1l-.1 1.1zm1.7-2.8a.94.94 0 0 1-1 1h-.1l-.8-.6c-.1-.1-.1-.3-.1-.4s0-.3.1-.4h0s.1-.1.1-.2c.2-.3.5-.4.8-.4.5 0 1 .4 1 1zm-2.5-.9l-6-.4-9.9-.7.1-2 15.9 1.1-.1 2zm-16.3-5.5l-.2 2.6v.3c0-.3 0-.7-.1-1V82l.1-.8.2.1zm-1 .8l.1 1.2c.1.7.1 1.5.1 2.2v.2.1.1.9c-1 .2-2.1.5-3.3.8-7.6 1.8-18.1 4.3-33.4 4.3s-25.7-2.5-33.4-4.3c-1.1-.3-2.2-.5-3.2-.8v-.1h0 0v-.1-.5-.9c0-.6.1-1.3.1-1.9v-.2c.2-2.2.3-3.4.4-3.7.2-.1 1-.3 3.7-.9-.8.5-1.2 1-1 1.5.1.4.6.6 1.4.6h.5a17.99 17.99 0 0 0 3.5-.7c1.9-.6 4-1.6 4.5-2.5.1-.2.1-.4.1-.6 0-.1-.1-.2-.1-.2l5.3-1.1v.1.1s.1.1.1.2c0 0 0 .1.1.1 0 .1.1.1.1.2l.1.1c0 .1.1.1.1.2s.1.1.1.2c.1.1.1.2.2.3 0 .1.1.1.1.2.1.1.1.2.2.4 0 .1.1.1.1.2.1.1.1.2.2.3 0 .1.1.1.1.2.1.1.1.2.2.3s.1.2.2.2c.1.1.1.2.2.3s.1.2.2.3.2.2.2.3c.1.1.1.2.2.3s.2.2.2.3c.1.1.1.2.2.3l.3.3c.1.1.2.2.2.3l.3.3c.1.1.2.2.2.3a1.38 1.38 0 0 1 .3.4c.1.1.2.2.2.3a1.38 1.38 0 0 1 .3.4c.1.1.2.2.2.3l.4.4.2.2.5.5.2.2c.2.2.4.4.7.6.1 0 .1.1.2.1.2.2.4.3.5.4s.2.1.3.2c.2.1.3.2.5.4.1.1.2.1.3.2.2.1.3.2.5.3.1.1.2.1.3.2.2.1.3.2.5.3.1.1.2.1.4.2s.3.2.5.3c.1.1.2.1.4.2s.3.2.5.2c.1.1.3.1.4.2.2.1.3.1.5.2.1.1.3.1.4.2.2.1.3.1.5.2.1 0 .3.1.4.1.2.1.4.1.5.1s.3.1.4.1c.2 0 .4.1.6.1.1 0 .3 0 .4.1.2 0 .4.1.7.1h.3 1 1 .3c.2 0 .4 0 .7-.1.1 0 .3 0 .4-.1.2 0 .4-.1.6-.1.1 0 .3-.1.4-.1.2 0 .4-.1.5-.1s.3-.1.4-.1c.2-.1.3-.1.5-.2a.76.76 0 0 0 .4-.2c.2-.1.3-.1.5-.2.1-.1.3-.1.4-.2.2-.1.3-.2.5-.2.1-.1.3-.1.4-.2.2-.1.3-.2.5-.3.1-.1.2-.1.4-.2s.3-.2.5-.3c.1-.1.2-.1.3-.2.2-.1.3-.2.5-.3.1-.1.2-.1.3-.2.2-.1.3-.2.5-.3.1-.1.2-.1.3-.2.2-.1.3-.3.5-.4l.2-.2c.2-.2.5-.4.7-.6l.2-.2.4-.4.3-.3.4-.4.3-.3.3-.3.3-.3.3-.3.3-.3.3-.3.3-.3c.1-.1.2-.2.2-.3.1-.1.2-.2.2-.3.1-.1.2-.2.2-.3.1-.1.2-.2.2-.3.1-.1.1-.2.2-.3s.1-.2.2-.3.1-.2.2-.3.1-.2.2-.3.1-.2.2-.2c.1-.1.1-.2.2-.3 0-.1.1-.1.1-.2.1-.1.1-.2.2-.3 0-.1.1-.1.1-.2.1-.2.2-.4.3-.5 0-.1.1-.1.1-.2s.1-.1.1-.2.1-.1.1-.2.1-.1.1-.2.1-.1.1-.2c0 0 0-.1.1-.1 0-.1.1-.1.1-.2v-.1-.1c.7.2 2.8.6 5.4 1.1 0 .1-.1.1-.1.2-.4 1.1 2.7 2.4 4.5 3 1.3.4 2.5.7 3.5.7h.5c.8 0 1.3-.2 1.4-.6s-.2-.9-1-1.4c2.5.6 3.3.8 3.5.9.1.3.2 1.2.4 2.7zm5.7-24.9l-.1.1c-.4.6-9 14.8-9.6 17-.3 1.1-.7 2.3-.9 3.3h0l-.1.4c0 .2-.1.3-.1.5v.3.2c-.7.1-2.6 0-5.1-1.7-.2-.1-.3-.2-.5-.3l.1-.1.1-.1.6-.5h-.1c.6-.7 1.6-1.8 2.9-3.6 2.5-3.3 11.2-16.6 11.7-17.5l3.4-3.1v.1c0 .9.1 1.8.5 2.6l.2.4c0 .1.1.1.1.2l.1.2h0c0 .1.1.1.2.2v.1l-3.4 1.3zm17 0h0c-5 2.1-10.4 1.6-12.8-1.2l-.3-.3c-.1-.1-.1-.2-.2-.3l-.1-.1c0-.1-.1-.1-.1-.2l-.2-.4c-.3-.7-.4-1.5-.4-2.3v-.2c0-.2 0-.4.1-.5.6-3.3 3.7-6.6 8-8.4 2.1-.9 4.2-1.3 6.2-1.3 3.5 0 6.4 1.4 7.4 3.8 1.7 3.7-1.7 8.9-7.6 11.4z"/></svg>