<svg xmlns="http://www.w3.org/2000/svg" baseProfile="tiny" viewBox="0 0 300 300" overflow="visible" fill="#221f1f" xmlns:v="https://vecta.io/nano"><path d="M203.4 164.9c.5.1 5.5.8 11.8.8 8.7 0 19.8-1.3 25-7.3.1-.1.1-.2.2-.4l1.9-12.5c.1-.4-.2-.7-.6-.8-10.3-1.8-25.5-2.1-31.1.5 0 0-.1 0-.1.1-7.7 5.2-7.7 18.4-7.7 18.9 0 .4.3.7.6.7zm7.9-18.4c4.7-2.1 18.5-2.3 29.5-.5l-1.8 11.6c-7.9 8.7-30.7 6.5-34.8 6 .2-2.6 1-12.9 7.1-17.1zm55-29.3c1.2-2.1 2.4-5.1 1.1-7.5-.9-1.8-2.8-2.5-4.5-3.1-6.3-2-13.5-.4-18.3.7-.5.1-1 .2-1.3.3-.1 0-.1 0-.2.1l-.1.1c0 .1 0 .1-.1.2-.3 2.8-3.4 7.2-4.7 8.9-.9-1.1-1.7-2.1-2.3-3.1-1.7-2.7-3.5-7.4-5.4-12.4-1.1-2.8-2.2-5.8-3.4-8.5-2-4.7-5.7-11.8-9-17.3-3.1-5.2-8.6-8.5-14.7-8.9-11.9-.8-34.7-2.1-53.4-2.1s-41.5 1.3-53.4 2.1c-6 .4-11.5 3.7-14.7 8.9-3.3 5.5-7 12.6-9 17.3-1.2 2.8-2.3 5.7-3.4 8.5-1.9 5-3.7 9.7-5.4 12.4-.6 1-1.4 2-2.3 3.1-1.3-1.7-4.4-6.1-4.7-8.9v-.1c0-.1 0-.1-.1-.2l-.1-.1c-.1 0-.1-.1-.2-.1-.4-.1-.8-.2-1.3-.3-4.9-1.1-12-2.7-18.3-.7-1.7.5-3.5 1.3-4.5 3.1-1.9 3.7 1.6 8.5 2.7 9.9 1.4 1.8 4 4 8.1 4.6 1.4.2 2.6.1 3.8.1 1.9-.1 3.7-.1 5.8.8l2.2.8c-4.3 7.7-4.3 16.2-4.3 21.1v1.7 1.2l1.5 55.7v23.6a6.06 6.06 0 0 0 6.1 6.1h12.8a6.06 6.06 0 0 0 6.1-6.1v-16.3l15.1.1c.1 0 .3 0 .4-.1l6.8-4.7c1.1.9 4.1 2.8 10.5 2.8l11.1.1 28.6.1 28.6-.1 11.1-.1c6.4 0 9.4-1.9 10.5-2.8l6.8 4.7c.1.1.3.1.4.1l15.1-.1v16.3a6.06 6.06 0 0 0 6.1 6.1h12.8a6.06 6.06 0 0 0 6.1-6.1v-23.6l1.5-56.1v-.8h0v-1.7c0-4.9.1-13.4-4.3-21.1.6-.2 1.4-.5 2.2-.8 2.1-.9 3.9-.8 5.8-.8 1.2 0 2.4.1 3.8-.1 4-.5 6.6-2.8 8.1-4.6.4-.2 1.1-1.1 1.8-2.3zm-3.8-9.2c1.5.5 2.9 1.1 3.6 2.4s.4 3-.2 4.5c-.4-1.2-.9-2.7-1.8-3.7-1.3-1.5-3.4-2.6-6-3.4-1.1-.3-2.1-.5-3.2-.7 2.5-.1 5.1.1 7.6.9zm-19.1 2.9c.1.7.2 1.3.1 2.1-.4 3.2-2.1 5.8-3 7-.1-.1-.2-.2-.3-.4-.4-.5-.8-.9-1.2-1.4.9-1.2 3.2-4.4 4.4-7.3zM61 118.2c-.4.5-.8.9-1.2 1.4-.1.1-.2.2-.3.4-.9-1.2-2.6-3.8-3-7-.1-.7 0-1.4.1-2.1 1.2 2.9 3.5 6.1 4.4 7.3zm-27.1-7.9c.7-1.3 2.1-1.9 3.6-2.4 2.5-.8 5.1-1 7.6-.9-1 .2-2.1.4-3.1.7-2.7.7-4.7 1.9-6 3.4-.9 1-1.5 2.5-1.8 3.7-.7-1.5-1-3.1-.3-4.5zm19.7 13.4c-2.4-1-4.5-1-6.4-.9-1.1 0-2.3.1-3.6-.1-3.6-.5-5.8-2.4-7.1-4-.2-.2-.7-1-1.4-2 .3-1.1.8-3.4 1.9-4.7s2.9-2.3 5.4-2.9c5-1.4 10-1 12.8-.4.1 0 .2 0 .3.1h.2v.1c-.4 1.2-.8 2.7-.6 4.3.5 3.8 2.6 6.7 3.5 7.9-.3.4-.6.7-.9 1-.7.8-1.2 1.7-1.8 2.5-.5-.2-1.4-.5-2.3-.9zm32.2-42.5c.5-1 1.4-1.7 2.5-1.8 7.7-.4 35-1.5 61.6-1.5 26.7 0 53.9 1.2 61.6 1.5 1.1.1 2.1.7 2.5 1.8l14.8 33.7a2.87 2.87 0 0 1-.2 2.7c0 .1-.1.1-.1.1H224c-8.1-1.8-20.3-3-31.8-3.2-10.4-.2-20.5.4-29.3 1.7-6-1.3-13.2-2.1-22.3-2.4-16.6-.6-34.2 2.3-43.8 3.9H71.4l-.1-.1a2.87 2.87 0 0 1-.2-2.7l14.7-33.7zm.3-2.5c.4-1 1.3-1.7 2.3-1.8 7.7-.4 35-1.5 61.6-1.5 26.7 0 53.9 1.2 61.7 1.5 1 .1 1.9.8 2.3 1.8-.6-.4-1.4-.7-2.2-.7-7.7-.4-35-1.5-61.7-1.5s-54 1.2-61.7 1.5c-.9 0-1.7.3-2.3.7zm23.4 85.2c2.5 2.2 6 4.6 10.9 4.6l8.5.1 20.4.2h1.5l20.4-.2c3.3-.1 6-.1 8.5-.1 4.8 0 8.3-2.5 10.9-4.6.9-.8 1.8-1.7 2.6-2.8-.9 2-2 3.8-3.5 5.1-3.5 3-6.5 4.3-9.9 4.3l-8.5.1-20.4.2h-1.5a991.13 991.13 0 0 1-20.4-.2c-3.3-.1-6-.1-8.5-.1-3.5 0-6.4-1.3-9.9-4.3-1.5-1.2-2.6-3.1-3.5-5.1.6 1 1.5 2 2.4 2.8zM104 150c5.8-1 11.7-1.8 17.6-2.4 9.4-.9 19-1.4 28.4-1.3 9.4-.1 19 .4 28.4 1.3 5.9.6 11.8 1.4 17.6 2.4-1 5.6-3.2 10-6.4 12.7-3.5 3-6.5 4.3-9.9 4.3l-8.5.1-20.4.2h-1.5a991.13 991.13 0 0 1-20.4-.2c-3.3-.1-6-.1-8.5-.1-3.5 0-6.4-1.3-9.9-4.3-3.3-2.6-5.5-7-6.5-12.7zm92.1-1.4c-5.8-1-11.7-1.8-17.6-2.4-9.5-.9-19.1-1.4-28.6-1.3-9.5-.1-19.1.4-28.6 1.3-5.9.6-11.8 1.4-17.6 2.4-.6-10.3-11.8-22.2-25.7-28.1 12.2.5 37 1.2 71.9 1.2s59.7-.7 71.9-1.2c-13.9 5.9-25.1 17.9-25.7 28.1zm-27.4-30.9c-.6-.2-1.3-.4-1.9-.6 7.8-1 16.5-1.4 25.5-1.2 8.1.2 16.4.8 23.5 1.8h-47.1zm-5.4 0h-.7c.1 0 .3 0 .4-.1.1.1.2.1.3.1zm-8.4 0h-48.8c9.7-1.4 22.4-2.9 34.5-2.5 7.3.2 13.2.8 18.4 1.6l-4.1.9zm67.1 1.4c-12.1.5-37 1.2-72 1.2s-59.9-.7-72-1.2h144zm-151 .3c.7.6 1.6.9 2.5 1 15.7 4.9 29 18.2 29 29.1v.1.1l.1.5c.6 3.6 2 13 6.9 17.2 2.5 2.2 6 4.6 10.9 4.6l8.5.1 20.4.2h1.5l20.4-.2c3.3-.1 6-.1 8.5-.1 4.8 0 8.3-2.5 10.9-4.6 4.9-4.2 6.4-13.7 6.9-17.2l.1-.5v-.1-.1c0-10.9 13.3-24.2 29-29.1.9-.1 1.8-.4 2.5-1 6.9 5.3 18.2 15.9 18.6 29.3v.9c-.2 3.6-2 13.3-9.2 20.2-6.5 6.2-18.4 14.4-47.6 14.4h-.1-.1c-.1 0-.1 0-.1.1 0 0-.1 0-.1.1l-.1.1s0 .1-.1.1c0 0 0 .1-.1.1v.1c-2.5 12.6-6.3 16.4-16.1 16.4h-24-24c-9.9 0-13.7-3.8-16.1-16.4 0-.1 0-.1-.1-.2v-.1l-.1-.1-.1-.1c-6-3.6-12.4-6.4-19-8.3-6.7-1.9-11.9-2.2-16-2.5-5.3-.4-9.1-.7-12.9-3.8-6.8-5.5-8.8-14.6-9.1-19.3v-1.7c0-13.4 11.4-24.1 18.3-29.3zm5.1 109.8c0 2.6-2.1 4.7-4.7 4.7H58.6c-2.6 0-4.7-2.1-4.7-4.7v-20.5c3.2 3 11.4 3.9 22.2 4.2v16.3zm16.3-17.6c-19.9 0-38.6 0-38.6-6.1v-2.4a51.12 51.12 0 0 0 7.8 4.2C65 208.7 76 209 84.4 209h4.5.5c.8 0 1.5-.6 2.3-1.3.6-.5 1.4-1.1 1.9-1.1.8 0 3 .5 4.7.9l-5.9 4.1zm109.3-4.1c1.7-.4 3.9-.9 4.7-.9.5 0 1.2.6 1.9 1.1.8.6 1.6 1.3 2.3 1.3h.5 4.5c8.4 0 19.4-.3 22.7-1.7a51.12 51.12 0 0 0 7.8-4.2v2.4c0 6-18.7 6-38.6 6l-5.8-4zm39.7 26.4h-12.8c-2.6 0-4.7-2.1-4.7-4.7v-16.3c10.9-.3 19.1-1.2 22.2-4.2v20.5c0 2.6-2.1 4.7-4.7 4.7zm4.9-33.1c-.1.1-.1.2-.1.4v.2c-1 .7-4.4 3-8.3 4.6-2.7 1.1-12.4 1.7-26.6 1.5h-.5c-.3 0-1-.6-1.5-.9-.9-.7-1.8-1.4-2.8-1.4-1.4 0-6 1.2-6.6 1.4h-.1s-.1 0-.1.1l-.1.1-.1.1s-2.3 2.8-9.8 2.8l-11.1.1-28.5.1c-12.5 0-21.5-.1-28.5-.1-4.4 0-8-.1-11.1-.1-7.5 0-9.8-2.7-9.8-2.8l-.1-.1-.1-.1s-.1 0-.1-.1h-.1c-.5-.1-5.2-1.4-6.6-1.4-1 0-1.9.7-2.8 1.4-.5.4-1.2.9-1.5.9h-.5c-14.2.2-23.9-.4-26.6-1.5-3.9-1.6-7.3-3.9-8.3-4.6v-.2c0-.1-.1-.3-.1-.4l-1.1-42.1c1.3 4.1 3.7 8.6 8 12.1 4.2 3.4 8.2 3.7 13.7 4.1 4.1.3 9.2.7 15.7 2.5 6.4 1.8 12.6 4.4 18.4 7.9 2.6 13 6.9 17.2 17.5 17.2h24 24c10.5 0 14.8-4.2 17.4-17 29.2-.1 41.4-8.5 48-14.8 4.2-4 6.6-8.9 8-13.1l-1.2 43.2zM230 118.3c.7-1.2.8-2.7.3-4l-14.7-33.5v-.9c0-2.3-1.7-4.1-3.8-4.3-7.7-.4-35-1.5-61.7-1.5s-54 1.2-61.7 1.5c-2.1.1-3.8 2-3.8 4.3v.9l-14.7 33.5c-.6 1.3-.5 2.8.3 4-5.6 4.3-13.9 12-17.4 21.8.5-5.3 1.9-11.7 6.2-17.1.7-.8 1.4-1.7 2.1-2.5 1.7-2 3.4-4 4.5-5.8 1.8-2.8 3.6-7.6 5.5-12.7l3.3-8.5c2-4.7 5.6-11.7 8.9-17.1 2.9-4.8 8-7.9 13.5-8.2 11.9-.8 34.7-2.1 53.3-2.1s41.4 1.3 53.3 2.1c5.6.4 10.6 3.4 13.5 8.2 3.3 5.4 6.9 12.5 8.9 17.1 1.2 2.7 2.3 5.7 3.3 8.5 1.9 5.1 3.7 9.9 5.5 12.7 1.1 1.8 2.8 3.8 4.5 5.8.7.9 1.4 1.7 2.1 2.5 4.4 5.4 5.8 11.8 6.2 17.1-3.5-9.8-11.8-17.6-17.4-21.8zm33.6.4c-1.3 1.6-3.6 3.6-7.1 4-1.3.2-2.5.1-3.6.1-2-.1-4-.1-6.4.9-.9.4-1.8.7-2.4.9-.5-.8-1.1-1.7-1.8-2.5-.3-.3-.6-.7-.9-1 .9-1.2 3-4.2 3.5-7.9.2-1.6-.2-3.1-.6-4.3v-.1h.2c.1 0 .2 0 .3-.1 2.8-.5 7.9-.9 12.8.4 2.4.7 4.2 1.6 5.4 2.9 1.1 1.3 1.7 3.6 1.9 4.7-.6 1.1-1.2 1.8-1.3 2zm-148.8 76.5c.1.3.4.5.7.5h14.1v2.7a.68.68 0 0 0 .7.7h39.5a.68.68 0 0 0 .7-.7v-2.7h14.1c.3 0 .6-.2.7-.5l2.5-6.6c.1-.2.1-.5-.1-.7-.1-.2-.4-.3-.6-.3h-16.6v-12.1a.68.68 0 0 0-.7-.7h-39.5a.68.68 0 0 0-.7.7v12.1H113c-.2 0-.5.1-.6.3s-.2.4-.1.7l2.5 6.6zm71.2-6.1l-1.9 5.1h-13.6v-5.1H186zm-55-12.8h38v12.1 6.6 2.7h-38V195v-6.6-12.1zm-1.4 12.8v5.1H116l-1.9-5.1h15.5zm108.4-8.2c-.1 0-7.8.5-16.7 3.3-5.9 1.8-10.7 4.3-13.1 5.7-1.6.9-2.3 2.7-1.9 4.4l.9 3.6c.5 1.7 2 2.9 3.8 2.9h.1c8.9-.2 20-.8 22-2.5 2.7-2.3 5.3-15 5.6-16.5 0-.2 0-.4-.2-.6 0-.3-.2-.4-.5-.3zm-5.7 16.2c-1.3 1.1-9.4 1.9-21.1 2.2-1.2 0-2.2-.7-2.5-1.9l-.9-3.6c-.3-1.1.2-2.3 1.2-2.8 2.3-1.3 7.1-3.8 12.8-5.5 6.9-2.1 13.1-2.9 15.4-3.1-1.2 5.4-3.3 13.3-4.9 14.7zM57.7 145.6l1.9 12.5a.76.76 0 0 0 .2.4c5.2 6 16.3 7.3 25 7.3 6.3 0 11.3-.7 11.8-.8.4 0 .6-.4.6-.7 0-.6-.1-13.8-7.7-18.9 0 0-.1 0-.1-.1-5.5-2.5-20.8-2.3-31.1-.5-.4.1-.6.4-.6.8zm31 .9c6.1 4.1 6.9 14.4 7 17.1-4.1.5-26.8 2.8-34.8-6L59.1 146c11.1-1.7 25-1.5 29.6.5zm3.1 43.3c-2.4-1.3-7.2-3.8-13.1-5.7-8.9-2.7-16.6-3.2-16.7-3.3-.2 0-.4.1-.6.2-.1.2-.2.4-.2.6.3 1.4 2.9 14.2 5.6 16.5 2 1.7 13.1 2.3 22 2.5h.1c1.8 0 3.3-1.2 3.8-2.9l.9-3.6c.5-1.6-.3-3.5-1.8-4.3zm.5 4l-.9 3.6c-.3 1.1-1.3 1.8-2.5 1.9-11.8-.3-19.9-1.1-21.1-2.2-1.6-1.4-3.8-9.2-4.9-14.7 2.3.2 8.5 1 15.4 3.1 5.7 1.8 10.5 4.2 12.8 5.5 1 .6 1.5 1.7 1.2 2.8z"/></svg>